<svg xmlns="http://www.w3.org/2000/svg" xmlns:xlink="http://www.w3.org/1999/xlink" width="2000" zoomAndPan="magnify" viewBox="0 0 1500 1499.999933" height="2000" preserveAspectRatio="xMidYMid meet" version="1.0"><defs><filter x="0%" y="0%" width="100%" height="100%" id="a130e8ef26"><feColorMatrix values="0 0 0 0 1 0 0 0 0 1 0 0 0 0 1 0 0 0 1 0" color-interpolation-filters="sRGB"/></filter><clipPath id="1721808b1a"><path d="M 350.050781 350.050781 L 1150 350.050781 L 1150 1150 L 350.050781 1150 Z M 350.050781 350.050781 " clip-rule="nonzero"/></clipPath><clipPath id="4aff9b6b0a"><path d="M 565.242188 350.050781 L 934.757812 350.050781 C 938.277344 350.050781 941.796875 350.136719 945.316406 350.308594 C 948.832031 350.484375 952.34375 350.742188 955.847656 351.085938 C 959.355469 351.433594 962.847656 351.863281 966.332031 352.378906 C 969.816406 352.898438 973.285156 353.5 976.738281 354.1875 C 980.191406 354.871094 983.628906 355.644531 987.042969 356.5 C 990.460938 357.355469 993.851562 358.292969 997.222656 359.316406 C 1000.59375 360.339844 1003.9375 361.445312 1007.253906 362.628906 C 1010.566406 363.816406 1013.851562 365.082031 1017.105469 366.429688 C 1020.359375 367.777344 1023.578125 369.207031 1026.761719 370.710938 C 1029.945312 372.21875 1033.089844 373.800781 1036.199219 375.460938 C 1039.304688 377.121094 1042.367188 378.855469 1045.386719 380.667969 C 1048.40625 382.476562 1051.382812 384.359375 1054.3125 386.316406 C 1057.238281 388.273438 1060.117188 390.300781 1062.945312 392.398438 C 1065.773438 394.496094 1068.550781 396.664062 1071.273438 398.898438 C 1073.996094 401.132812 1076.660156 403.429688 1079.269531 405.796875 C 1081.878906 408.160156 1084.429688 410.589844 1086.921875 413.078125 C 1089.410156 415.570312 1091.839844 418.121094 1094.203125 420.730469 C 1096.570312 423.339844 1098.867188 426.003906 1101.101562 428.726562 C 1103.335938 431.449219 1105.503906 434.226562 1107.601562 437.054688 C 1109.699219 439.882812 1111.726562 442.761719 1113.683594 445.6875 C 1115.640625 448.617188 1117.523438 451.589844 1119.332031 454.613281 C 1121.144531 457.632812 1122.878906 460.695312 1124.539062 463.800781 C 1126.199219 466.910156 1127.78125 470.054688 1129.289062 473.238281 C 1130.792969 476.421875 1132.222656 479.640625 1133.570312 482.894531 C 1134.917969 486.148438 1136.183594 489.429688 1137.371094 492.746094 C 1138.554688 496.0625 1139.660156 499.40625 1140.683594 502.777344 C 1141.707031 506.148438 1142.644531 509.539062 1143.5 512.957031 C 1144.355469 516.371094 1145.128906 519.808594 1145.8125 523.261719 C 1146.5 526.714844 1147.101562 530.183594 1147.621094 533.667969 C 1148.136719 537.152344 1148.566406 540.644531 1148.914062 544.152344 C 1149.257812 547.65625 1149.515625 551.167969 1149.691406 554.683594 C 1149.863281 558.203125 1149.949219 561.722656 1149.949219 565.242188 L 1149.949219 934.757812 C 1149.949219 938.277344 1149.863281 941.796875 1149.691406 945.316406 C 1149.515625 948.832031 1149.257812 952.34375 1148.914062 955.847656 C 1148.566406 959.355469 1148.136719 962.847656 1147.621094 966.332031 C 1147.101562 969.816406 1146.5 973.285156 1145.8125 976.738281 C 1145.128906 980.191406 1144.355469 983.628906 1143.5 987.042969 C 1142.644531 990.460938 1141.707031 993.851562 1140.683594 997.222656 C 1139.660156 1000.59375 1138.554688 1003.9375 1137.371094 1007.253906 C 1136.183594 1010.566406 1134.917969 1013.851562 1133.570312 1017.105469 C 1132.222656 1020.359375 1130.792969 1023.578125 1129.289062 1026.761719 C 1127.78125 1029.945312 1126.199219 1033.089844 1124.539062 1036.199219 C 1122.878906 1039.304688 1121.144531 1042.367188 1119.332031 1045.386719 C 1117.523438 1048.40625 1115.640625 1051.382812 1113.683594 1054.3125 C 1111.726562 1057.238281 1109.699219 1060.117188 1107.601562 1062.945312 C 1105.503906 1065.773438 1103.335938 1068.550781 1101.101562 1071.273438 C 1098.867188 1073.996094 1096.570312 1076.660156 1094.203125 1079.269531 C 1091.839844 1081.878906 1089.410156 1084.429688 1086.921875 1086.921875 C 1084.429688 1089.410156 1081.878906 1091.839844 1079.269531 1094.203125 C 1076.660156 1096.570312 1073.996094 1098.867188 1071.273438 1101.101562 C 1068.550781 1103.335938 1065.773438 1105.503906 1062.945312 1107.601562 C 1060.117188 1109.699219 1057.238281 1111.726562 1054.3125 1113.683594 C 1051.382812 1115.640625 1048.40625 1117.523438 1045.386719 1119.332031 C 1042.367188 1121.144531 1039.304688 1122.878906 1036.199219 1124.539062 C 1033.089844 1126.199219 1029.945312 1127.78125 1026.761719 1129.289062 C 1023.578125 1130.792969 1020.359375 1132.222656 1017.105469 1133.570312 C 1013.851562 1134.917969 1010.570312 1136.183594 1007.253906 1137.371094 C 1003.9375 1138.554688 1000.59375 1139.660156 997.222656 1140.683594 C 993.851562 1141.707031 990.460938 1142.644531 987.042969 1143.5 C 983.628906 1144.355469 980.191406 1145.128906 976.738281 1145.8125 C 973.285156 1146.5 969.816406 1147.101562 966.332031 1147.621094 C 962.847656 1148.136719 959.355469 1148.566406 955.847656 1148.914062 C 952.34375 1149.257812 948.832031 1149.515625 945.316406 1149.691406 C 941.796875 1149.863281 938.277344 1149.949219 934.757812 1149.949219 L 565.242188 1149.949219 C 561.722656 1149.949219 558.203125 1149.863281 554.683594 1149.691406 C 551.167969 1149.515625 547.65625 1149.257812 544.152344 1148.914062 C 540.644531 1148.566406 537.152344 1148.136719 533.667969 1147.621094 C 530.183594 1147.101562 526.714844 1146.5 523.261719 1145.8125 C 519.808594 1145.128906 516.371094 1144.355469 512.957031 1143.5 C 509.539062 1142.644531 506.148438 1141.707031 502.777344 1140.683594 C 499.40625 1139.660156 496.0625 1138.554688 492.746094 1137.371094 C 489.429688 1136.183594 486.148438 1134.917969 482.894531 1133.570312 C 479.640625 1132.222656 476.421875 1130.792969 473.238281 1129.289062 C 470.054688 1127.78125 466.910156 1126.199219 463.800781 1124.539062 C 460.695312 1122.878906 457.632812 1121.144531 454.613281 1119.332031 C 451.589844 1117.523438 448.617188 1115.640625 445.6875 1113.683594 C 442.761719 1111.726562 439.882812 1109.699219 437.054688 1107.601562 C 434.226562 1105.503906 431.449219 1103.335938 428.726562 1101.101562 C 426.003906 1098.867188 423.339844 1096.570312 420.730469 1094.203125 C 418.121094 1091.839844 415.570312 1089.410156 413.078125 1086.921875 C 410.589844 1084.429688 408.160156 1081.878906 405.796875 1079.269531 C 403.429688 1076.660156 401.132812 1073.996094 398.898438 1071.273438 C 396.664062 1068.550781 394.496094 1065.773438 392.398438 1062.945312 C 390.300781 1060.117188 388.273438 1057.238281 386.316406 1054.3125 C 384.359375 1051.382812 382.476562 1048.40625 380.667969 1045.386719 C 378.855469 1042.367188 377.121094 1039.304688 375.460938 1036.199219 C 373.800781 1033.089844 372.21875 1029.945312 370.710938 1026.761719 C 369.207031 1023.578125 367.777344 1020.359375 366.429688 1017.105469 C 365.082031 1013.851562 363.816406 1010.570312 362.628906 1007.253906 C 361.445312 1003.9375 360.339844 1000.59375 359.316406 997.222656 C 358.292969 993.851562 357.355469 990.460938 356.5 987.042969 C 355.644531 983.628906 354.871094 980.191406 354.1875 976.738281 C 353.5 973.285156 352.898438 969.816406 352.378906 966.332031 C 351.863281 962.847656 351.433594 959.355469 351.085938 955.847656 C 350.742188 952.34375 350.484375 948.832031 350.308594 945.316406 C 350.136719 941.796875 350.050781 938.277344 350.050781 934.757812 L 350.050781 565.242188 C 350.050781 561.722656 350.136719 558.203125 350.308594 554.683594 C 350.484375 551.167969 350.742188 547.65625 351.085938 544.152344 C 351.433594 540.644531 351.863281 537.152344 352.378906 533.667969 C 352.898438 530.183594 353.5 526.714844 354.1875 523.261719 C 354.871094 519.808594 355.644531 516.371094 356.5 512.957031 C 357.355469 509.539062 358.292969 506.148438 359.316406 502.777344 C 360.339844 499.40625 361.445312 496.0625 362.628906 492.746094 C 363.816406 489.429688 365.082031 486.148438 366.429688 482.894531 C 367.777344 479.640625 369.207031 476.421875 370.710938 473.238281 C 372.21875 470.054688 373.800781 466.910156 375.460938 463.800781 C 377.121094 460.695312 378.855469 457.632812 380.667969 454.613281 C 382.476562 451.589844 384.359375 448.617188 386.316406 445.6875 C 388.273438 442.761719 390.300781 439.882812 392.398438 437.054688 C 394.496094 434.226562 396.664062 431.449219 398.898438 428.726562 C 401.132812 426.003906 403.429688 423.339844 405.796875 420.730469 C 408.160156 418.121094 410.589844 415.570312 413.078125 413.078125 C 415.570312 410.589844 418.121094 408.160156 420.730469 405.796875 C 423.339844 403.429688 426.003906 401.132812 428.726562 398.898438 C 431.449219 396.664062 434.226562 394.496094 437.054688 392.398438 C 439.882812 390.300781 442.761719 388.273438 445.6875 386.316406 C 448.617188 384.359375 451.589844 382.476562 454.613281 380.667969 C 457.632812 378.855469 460.695312 377.121094 463.800781 375.460938 C 466.910156 373.800781 470.054688 372.21875 473.238281 370.710938 C 476.421875 369.207031 479.640625 367.777344 482.894531 366.429688 C 486.148438 365.082031 489.429688 363.816406 492.746094 362.628906 C 496.0625 361.445312 499.40625 360.339844 502.777344 359.316406 C 506.148438 358.292969 509.539062 357.355469 512.957031 356.5 C 516.371094 355.644531 519.808594 354.871094 523.261719 354.1875 C 526.714844 353.5 530.183594 352.898438 533.667969 352.378906 C 537.152344 351.863281 540.644531 351.433594 544.152344 351.085938 C 547.65625 350.742188 551.167969 350.484375 554.683594 350.308594 C 558.203125 350.136719 561.722656 350.050781 565.242188 350.050781 Z M 565.242188 350.050781 " clip-rule="nonzero"/></clipPath><clipPath id="1202584ddf"><path d="M 0.40625 2.269531 L 198.195312 2.269531 L 198.195312 377.730469 L 0.40625 377.730469 Z M 0.40625 2.269531 " clip-rule="nonzero"/></clipPath><clipPath id="6daff6e126"><path d="M 177 355 L 557 355 L 557 560 L 177 560 Z M 177 355 " clip-rule="nonzero"/></clipPath><clipPath id="591de86bca"><path d="M 181.265625 355.207031 L 556.667969 362.101562 L 553.035156 559.855469 L 177.636719 552.960938 Z M 181.265625 355.207031 " clip-rule="nonzero"/></clipPath><clipPath id="2cfe9d1597"><path d="M 4 0.160156 L 379.679688 0.160156 L 379.679688 204.878906 L 4 204.878906 Z M 4 0.160156 " clip-rule="nonzero"/></clipPath><clipPath id="dc7e9194f0"><path d="M 4.265625 0.207031 L 379.667969 7.101562 L 376.035156 204.855469 L 0.636719 197.960938 Z M 4.265625 0.207031 " clip-rule="nonzero"/></clipPath><clipPath id="902a67640c"><path d="M 0.621094 198.695312 L 376.023438 205.589844 L 379.652344 7.832031 L 4.253906 0.941406 Z M 0.621094 198.695312 " clip-rule="nonzero"/></clipPath><clipPath id="1268f7a7dc"><rect x="0" width="380" y="0" height="205"/></clipPath><clipPath id="1f10612661"><path d="M 0.410156 355.207031 L 198.953125 355.207031 L 198.953125 554.609375 L 0.410156 554.609375 Z M 0.410156 355.207031 " clip-rule="nonzero"/></clipPath><clipPath id="6937be2f3d"><path d="M 0.410156 0.207031 L 198.953125 0.207031 L 198.953125 199.609375 L 0.410156 199.609375 Z M 0.410156 0.207031 " clip-rule="nonzero"/></clipPath><clipPath id="9ff0156ce1"><rect x="0" width="199" y="0" height="200"/></clipPath><clipPath id="2b91cb960c"><path d="M 99 1 L 558 1 L 558 460 L 99 460 Z M 99 1 " clip-rule="nonzero"/></clipPath><clipPath id="86c52cd66f"><path d="M 99.695312 318.273438 L 416.605469 1.363281 L 557.601562 142.363281 L 240.695312 459.269531 Z M 99.695312 318.273438 " clip-rule="nonzero"/></clipPath><clipPath id="a0800ef130"><path d="M 0.480469 0.160156 L 458.640625 0.160156 L 458.640625 458.320312 L 0.480469 458.320312 Z M 0.480469 0.160156 " clip-rule="nonzero"/></clipPath><clipPath id="2854026c49"><path d="M 0.695312 317.273438 L 317.605469 0.363281 L 458.601562 141.363281 L 141.695312 458.269531 Z M 0.695312 317.273438 " clip-rule="nonzero"/></clipPath><clipPath id="2e063f91e5"><rect x="0" width="459" y="0" height="459"/></clipPath><clipPath id="85c52fd335"><rect x="0" width="559" y="0" height="561"/></clipPath><mask id="8dc37de771"><g filter="url(#a130e8ef26)"><rect x="-150" width="1800" fill="#000000" y="-149.999993" height="1799.99992" fill-opacity="0.27"/></g></mask><clipPath id="a72b1ad4f8"><path d="M 0.238281 0.679688 L 558 0.679688 L 558 560.601562 L 0.238281 560.601562 Z M 0.238281 0.679688 " clip-rule="nonzero"/></clipPath><clipPath id="9be4dcfeae"><path d="M 0.238281 2.269531 L 198.027344 2.269531 L 198.027344 377.730469 L 0.238281 377.730469 Z M 0.238281 2.269531 " clip-rule="nonzero"/></clipPath><clipPath id="e8395c36e6"><path d="M 177 355 L 557 355 L 557 560 L 177 560 Z M 177 355 " clip-rule="nonzero"/></clipPath><clipPath id="348563883d"><path d="M 181.097656 355.207031 L 556.5 362.101562 L 552.867188 559.855469 L 177.46875 552.960938 Z M 181.097656 355.207031 " clip-rule="nonzero"/></clipPath><clipPath id="b927de8b65"><path d="M 4 0.160156 L 379.558594 0.160156 L 379.558594 204.878906 L 4 204.878906 Z M 4 0.160156 " clip-rule="nonzero"/></clipPath><clipPath id="5c3953ba99"><path d="M 4.097656 0.207031 L 379.5 7.101562 L 375.867188 204.855469 L 0.46875 197.960938 Z M 4.097656 0.207031 " clip-rule="nonzero"/></clipPath><clipPath id="7e5c19b9fa"><path d="M 0.453125 198.695312 L 375.855469 205.589844 L 379.484375 7.832031 L 4.085938 0.941406 Z M 0.453125 198.695312 " clip-rule="nonzero"/></clipPath><clipPath id="e3ad8b641d"><rect x="0" width="380" y="0" height="205"/></clipPath><clipPath id="32790588de"><path d="M 0.246094 355.207031 L 198.789062 355.207031 L 198.789062 554.609375 L 0.246094 554.609375 Z M 0.246094 355.207031 " clip-rule="nonzero"/></clipPath><clipPath id="b6475087fe"><path d="M 0.246094 0.207031 L 198.789062 0.207031 L 198.789062 199.609375 L 0.246094 199.609375 Z M 0.246094 0.207031 " clip-rule="nonzero"/></clipPath><clipPath id="6856fd7cf1"><rect x="0" width="199" y="0" height="200"/></clipPath><clipPath id="596575699c"><path d="M 99 1 L 558 1 L 558 460 L 99 460 Z M 99 1 " clip-rule="nonzero"/></clipPath><clipPath id="51409d19fb"><path d="M 99.53125 318.273438 L 416.4375 1.363281 L 557.433594 142.363281 L 240.527344 459.269531 Z M 99.53125 318.273438 " clip-rule="nonzero"/></clipPath><clipPath id="3ed0c06a11"><path d="M 0.359375 0.160156 L 458.519531 0.160156 L 458.519531 458.320312 L 0.359375 458.320312 Z M 0.359375 0.160156 " clip-rule="nonzero"/></clipPath><clipPath id="7cc9701911"><path d="M 0.53125 317.273438 L 317.4375 0.363281 L 458.433594 141.363281 L 141.527344 458.269531 Z M 0.53125 317.273438 " clip-rule="nonzero"/></clipPath><clipPath id="12d6f8c69a"><rect x="0" width="459" y="0" height="459"/></clipPath><clipPath id="b5880b440c"><rect x="0" width="558" y="0" height="561"/></clipPath><clipPath id="9426dc4185"><rect x="0" width="558" y="0" height="561"/></clipPath></defs><g clip-path="url(#1721808b1a)"><g clip-path="url(#4aff9b6b0a)"><path fill="#3e4194" d="M 350.050781 1149.949219 L 1149.949219 1149.949219 L 1149.949219 350.050781 L 350.050781 350.050781 Z M 350.050781 1149.949219 " fill-opacity="1" fill-rule="nonzero"/></g></g><g transform="matrix(1, 0, 0, 1, 471, 469)"><g clip-path="url(#85c52fd335)"><g clip-path="url(#1202584ddf)"><path fill="#ffffff" d="M 198.878906 1.363281 L 198.878906 377.730469 C 89.300781 377.730469 0.472656 288.90625 0.472656 179.328125 L 0.472656 1.363281 Z M 198.878906 1.363281 " fill-opacity="1" fill-rule="nonzero"/></g><g clip-path="url(#6daff6e126)"><g clip-path="url(#591de86bca)"><g transform="matrix(1, 0, 0, 1, 177, 355)"><g clip-path="url(#1268f7a7dc)"><g clip-path="url(#2cfe9d1597)"><g clip-path="url(#dc7e9194f0)"><g clip-path="url(#902a67640c)"><path fill="#ffffff" d="M 380.570312 7.167969 L 4.265625 0.257812 C 2.253906 109.816406 89.4375 200.257812 198.992188 202.269531 L 376.929688 205.535156 Z M 380.570312 7.167969 " fill-opacity="1" fill-rule="nonzero"/></g></g></g></g></g></g></g><g clip-path="url(#1f10612661)"><g transform="matrix(1, 0, 0, 1, 0, 355)"><g clip-path="url(#9ff0156ce1)"><g clip-path="url(#6937be2f3d)"><path fill="#ffffff" d="M 0.410156 0.207031 L 198.953125 0.207031 L 198.953125 199.523438 L 0.410156 199.523438 Z M 0.410156 0.207031 " fill-opacity="1" fill-rule="nonzero"/></g></g></g></g><g clip-path="url(#2b91cb960c)"><g clip-path="url(#86c52cd66f)"><g transform="matrix(1, 0, 0, 1, 99, 1)"><g clip-path="url(#2e063f91e5)"><g clip-path="url(#a0800ef130)"><g clip-path="url(#2854026c49)"><path fill="#ffffff" d="M 0.695312 317.273438 L 317.390625 0.578125 L 458.390625 141.574219 L 141.695312 458.269531 Z M 0.695312 317.273438 " fill-opacity="1" fill-rule="nonzero"/></g></g></g></g></g></g></g></g><g mask="url(#8dc37de771)"><g transform="matrix(1, 0, 0, 1, 516, 469)"><g clip-path="url(#9426dc4185)"><g clip-path="url(#a72b1ad4f8)"><g transform="matrix(1, 0, 0, 1, 0, 0.000000000000113687)"><g clip-path="url(#b5880b440c)"><g clip-path="url(#9be4dcfeae)"><path fill="#ffffff" d="M 198.710938 1.363281 L 198.710938 377.730469 C 89.136719 377.730469 0.308594 288.90625 0.308594 179.328125 L 0.308594 1.363281 Z M 198.710938 1.363281 " fill-opacity="1" fill-rule="nonzero"/></g><g clip-path="url(#e8395c36e6)"><g clip-path="url(#348563883d)"><g transform="matrix(1, 0, 0, 1, 177, 355)"><g clip-path="url(#e3ad8b641d)"><g clip-path="url(#b927de8b65)"><g clip-path="url(#5c3953ba99)"><g clip-path="url(#7e5c19b9fa)"><path fill="#ffffff" d="M 380.402344 7.167969 L 4.097656 0.257812 C 2.085938 109.816406 89.269531 200.257812 198.824219 202.269531 L 376.761719 205.535156 Z M 380.402344 7.167969 " fill-opacity="1" fill-rule="nonzero"/></g></g></g></g></g></g></g><g clip-path="url(#32790588de)"><g transform="matrix(1, 0, 0, 1, 0, 355)"><g clip-path="url(#6856fd7cf1)"><g clip-path="url(#b6475087fe)"><path fill="#ffffff" d="M 0.246094 0.207031 L 198.789062 0.207031 L 198.789062 199.523438 L 0.246094 199.523438 Z M 0.246094 0.207031 " fill-opacity="1" fill-rule="nonzero"/></g></g></g></g><g clip-path="url(#596575699c)"><g clip-path="url(#51409d19fb)"><g transform="matrix(1, 0, 0, 1, 99, 1)"><g clip-path="url(#12d6f8c69a)"><g clip-path="url(#3ed0c06a11)"><g clip-path="url(#7cc9701911)"><path fill="#ffffff" d="M 0.53125 317.273438 L 317.222656 0.578125 L 458.222656 141.574219 L 141.527344 458.269531 Z M 0.53125 317.273438 " fill-opacity="1" fill-rule="nonzero"/></g></g></g></g></g></g></g></g></g></g></g></g></svg>