<svg xmlns="http://www.w3.org/2000/svg" xmlns:xlink="http://www.w3.org/1999/xlink" width="2000" zoomAndPan="magnify" viewBox="0 0 1500 1499.999933" height="2000" preserveAspectRatio="xMidYMid meet" version="1.0"><defs><filter x="0%" y="0%" width="100%" height="100%" id="bf45191c9f"><feColorMatrix values="0 0 0 0 1 0 0 0 0 1 0 0 0 0 1 0 0 0 1 0" color-interpolation-filters="sRGB"/></filter><g/><clipPath id="f445018372"><path d="M 469.621094 318.308594 L 1030.621094 318.308594 L 1030.621094 879.308594 L 469.621094 879.308594 Z M 469.621094 318.308594 " clip-rule="nonzero"/></clipPath><clipPath id="f28f754df1"><path d="M 620.476562 318.308594 L 879.519531 318.308594 C 881.988281 318.308594 884.453125 318.371094 886.921875 318.492188 C 889.386719 318.613281 891.847656 318.792969 894.304688 319.035156 C 896.761719 319.277344 899.210938 319.582031 901.652344 319.941406 C 904.09375 320.304688 906.527344 320.726562 908.949219 321.207031 C 911.371094 321.691406 913.777344 322.230469 916.171875 322.832031 C 918.566406 323.429688 920.945312 324.089844 923.308594 324.804688 C 925.671875 325.523438 928.015625 326.296875 930.339844 327.128906 C 932.664062 327.960938 934.96875 328.847656 937.25 329.792969 C 939.527344 330.738281 941.785156 331.738281 944.015625 332.792969 C 946.25 333.847656 948.453125 334.960938 950.632812 336.121094 C 952.808594 337.285156 954.957031 338.503906 957.074219 339.773438 C 959.191406 341.042969 961.277344 342.363281 963.328125 343.734375 C 965.382812 345.105469 967.398438 346.527344 969.382812 347.996094 C 971.367188 349.46875 973.3125 350.988281 975.21875 352.554688 C 977.128906 354.117188 978.996094 355.730469 980.828125 357.390625 C 982.65625 359.046875 984.445312 360.75 986.191406 362.496094 C 987.9375 364.242188 989.636719 366.027344 991.296875 367.859375 C 992.953125 369.6875 994.566406 371.554688 996.132812 373.464844 C 997.699219 375.371094 999.214844 377.320312 1000.6875 379.300781 C 1002.15625 381.285156 1003.578125 383.300781 1004.949219 385.355469 C 1006.324219 387.40625 1007.644531 389.492188 1008.914062 391.609375 C 1010.179688 393.730469 1011.398438 395.875 1012.5625 398.054688 C 1013.726562 400.230469 1014.835938 402.433594 1015.890625 404.667969 C 1016.945312 406.898438 1017.945312 409.15625 1018.890625 411.4375 C 1019.835938 413.71875 1020.722656 416.019531 1021.554688 418.34375 C 1022.386719 420.667969 1023.164062 423.011719 1023.878906 425.375 C 1024.59375 427.738281 1025.253906 430.117188 1025.855469 432.511719 C 1026.453125 434.90625 1026.996094 437.316406 1027.476562 439.734375 C 1027.957031 442.15625 1028.378906 444.589844 1028.742188 447.03125 C 1029.105469 449.472656 1029.40625 451.921875 1029.648438 454.378906 C 1029.890625 456.835938 1030.070312 459.300781 1030.191406 461.765625 C 1030.3125 464.230469 1030.375 466.699219 1030.375 469.167969 L 1030.375 728.207031 C 1030.375 730.675781 1030.3125 733.144531 1030.191406 735.609375 C 1030.070312 738.074219 1029.890625 740.535156 1029.648438 742.992188 C 1029.40625 745.449219 1029.105469 747.898438 1028.742188 750.34375 C 1028.378906 752.785156 1027.957031 755.214844 1027.476562 757.636719 C 1026.996094 760.058594 1026.453125 762.46875 1025.855469 764.863281 C 1025.253906 767.257812 1024.59375 769.636719 1023.878906 772 C 1023.164062 774.359375 1022.386719 776.703125 1021.554688 779.027344 C 1020.722656 781.351562 1019.835938 783.65625 1018.890625 785.9375 C 1017.945312 788.21875 1016.945312 790.472656 1015.890625 792.707031 C 1014.835938 794.9375 1013.726562 797.144531 1012.5625 799.320312 C 1011.398438 801.496094 1010.179688 803.644531 1008.914062 805.761719 C 1007.644531 807.878906 1006.324219 809.964844 1004.949219 812.019531 C 1003.578125 814.070312 1002.15625 816.089844 1000.6875 818.070312 C 999.214844 820.054688 997.699219 822 996.132812 823.910156 C 994.566406 825.816406 992.953125 827.6875 991.296875 829.515625 C 989.636719 831.34375 987.9375 833.132812 986.191406 834.878906 C 984.445312 836.625 982.65625 838.328125 980.828125 839.984375 C 978.996094 841.640625 977.128906 843.253906 975.21875 844.820312 C 973.3125 846.386719 971.367188 847.90625 969.382812 849.375 C 967.398438 850.847656 965.382812 852.269531 963.328125 853.640625 C 961.277344 855.011719 959.191406 856.332031 957.074219 857.601562 C 954.957031 858.871094 952.808594 860.085938 950.632812 861.25 C 948.453125 862.414062 946.25 863.523438 944.015625 864.578125 C 941.785156 865.636719 939.527344 866.636719 937.25 867.582031 C 934.96875 868.523438 932.664062 869.414062 930.339844 870.246094 C 928.015625 871.078125 925.671875 871.851562 923.308594 872.566406 C 920.945312 873.285156 918.566406 873.941406 916.171875 874.542969 C 913.777344 875.144531 911.371094 875.683594 908.949219 876.164062 C 906.527344 876.648438 904.09375 877.070312 901.652344 877.429688 C 899.210938 877.792969 896.761719 878.09375 894.304688 878.335938 C 891.847656 878.578125 889.386719 878.761719 886.921875 878.882812 C 884.453125 879.003906 881.988281 879.0625 879.519531 879.0625 L 620.476562 879.0625 C 618.007812 879.0625 615.542969 879.003906 613.074219 878.882812 C 610.609375 878.761719 608.148438 878.578125 605.691406 878.335938 C 603.234375 878.09375 600.785156 877.792969 598.34375 877.429688 C 595.902344 877.070312 593.46875 876.648438 591.046875 876.164062 C 588.625 875.683594 586.21875 875.144531 583.824219 874.542969 C 581.429688 873.941406 579.050781 873.285156 576.6875 872.566406 C 574.324219 871.851562 571.980469 871.078125 569.65625 870.246094 C 567.332031 869.414062 565.027344 868.523438 562.746094 867.582031 C 560.464844 866.636719 558.210938 865.636719 555.976562 864.578125 C 553.746094 863.523438 551.542969 862.414062 549.363281 861.25 C 547.1875 860.085938 545.039062 858.871094 542.921875 857.601562 C 540.804688 856.332031 538.71875 855.011719 536.667969 853.640625 C 534.613281 852.269531 532.59375 850.847656 530.613281 849.375 C 528.628906 847.90625 526.683594 846.386719 524.773438 844.820312 C 522.867188 843.253906 520.996094 841.640625 519.167969 839.984375 C 517.339844 838.328125 515.550781 836.625 513.804688 834.878906 C 512.058594 833.132812 510.359375 831.34375 508.699219 829.515625 C 507.042969 827.6875 505.429688 825.816406 503.863281 823.910156 C 502.296875 822 500.777344 820.054688 499.308594 818.070312 C 497.835938 816.089844 496.417969 814.070312 495.046875 812.019531 C 493.671875 809.964844 492.351562 807.878906 491.082031 805.761719 C 489.8125 803.644531 488.597656 801.496094 487.433594 799.320312 C 486.269531 797.144531 485.160156 794.9375 484.105469 792.707031 C 483.050781 790.472656 482.050781 788.21875 481.105469 785.9375 C 480.160156 783.65625 479.269531 781.351562 478.441406 779.027344 C 477.609375 776.703125 476.832031 774.359375 476.117188 772 C 475.398438 769.636719 474.742188 767.257812 474.140625 764.863281 C 473.542969 762.46875 473 760.058594 472.519531 757.636719 C 472.039062 755.214844 471.617188 752.785156 471.253906 750.34375 C 470.890625 747.898438 470.589844 745.449219 470.347656 742.992188 C 470.105469 740.535156 469.925781 738.074219 469.800781 735.609375 C 469.679688 733.144531 469.621094 730.675781 469.621094 728.207031 L 469.621094 469.167969 C 469.621094 466.699219 469.679688 464.230469 469.800781 461.765625 C 469.925781 459.300781 470.105469 456.835938 470.347656 454.378906 C 470.589844 451.921875 470.890625 449.472656 471.253906 447.03125 C 471.617188 444.589844 472.039062 442.15625 472.519531 439.734375 C 473 437.316406 473.542969 434.90625 474.140625 432.511719 C 474.742188 430.117188 475.398438 427.738281 476.117188 425.375 C 476.832031 423.011719 477.609375 420.667969 478.441406 418.34375 C 479.269531 416.019531 480.160156 413.71875 481.105469 411.4375 C 482.050781 409.15625 483.050781 406.898438 484.105469 404.667969 C 485.160156 402.433594 486.269531 400.230469 487.433594 398.054688 C 488.597656 395.875 489.8125 393.730469 491.082031 391.609375 C 492.351562 389.492188 493.671875 387.40625 495.046875 385.355469 C 496.417969 383.300781 497.835938 381.285156 499.308594 379.300781 C 500.777344 377.320312 502.296875 375.371094 503.863281 373.464844 C 505.429688 371.554688 507.042969 369.6875 508.699219 367.859375 C 510.359375 366.027344 512.058594 364.242188 513.804688 362.496094 C 515.550781 360.75 517.339844 359.046875 519.167969 357.390625 C 520.996094 355.730469 522.867188 354.117188 524.773438 352.554688 C 526.683594 350.988281 528.628906 349.46875 530.613281 347.996094 C 532.59375 346.527344 534.613281 345.105469 536.667969 343.734375 C 538.71875 342.363281 540.804688 341.042969 542.921875 339.773438 C 545.039062 338.503906 547.1875 337.285156 549.363281 336.121094 C 551.542969 334.960938 553.746094 333.847656 555.976562 332.792969 C 558.210938 331.738281 560.464844 330.738281 562.746094 329.792969 C 565.027344 328.847656 567.332031 327.960938 569.65625 327.128906 C 571.980469 326.296875 574.324219 325.523438 576.6875 324.804688 C 579.050781 324.089844 581.429688 323.429688 583.824219 322.832031 C 586.21875 322.230469 588.625 321.691406 591.046875 321.207031 C 593.46875 320.726562 595.902344 320.304688 598.34375 319.941406 C 600.785156 319.582031 603.234375 319.277344 605.691406 319.035156 C 608.148438 318.792969 610.609375 318.613281 613.074219 318.492188 C 615.542969 318.371094 618.007812 318.308594 620.476562 318.308594 Z M 620.476562 318.308594 " clip-rule="nonzero"/></clipPath><clipPath id="8e35738a28"><path d="M 0.695312 1.289062 L 139.351562 1.289062 L 139.351562 264.5 L 0.695312 264.5 Z M 0.695312 1.289062 " clip-rule="nonzero"/></clipPath><clipPath id="013d3b5e99"><path d="M 124 248 L 391 248 L 391 392.878906 L 124 392.878906 Z M 124 248 " clip-rule="nonzero"/></clipPath><clipPath id="8481b9a094"><path d="M 127.484375 248.710938 L 390.652344 253.542969 L 388.109375 392.175781 L 124.941406 387.34375 Z M 127.484375 248.710938 " clip-rule="nonzero"/></clipPath><clipPath id="4b6a7b07d3"><path d="M 3 1 L 266.878906 1 L 266.878906 144.398438 L 3 144.398438 Z M 3 1 " clip-rule="nonzero"/></clipPath><clipPath id="025830c906"><path d="M 3.484375 0.710938 L 266.652344 5.542969 L 264.109375 144.175781 L 0.941406 139.34375 Z M 3.484375 0.710938 " clip-rule="nonzero"/></clipPath><clipPath id="e04fdec4f3"><path d="M 0.929688 139.859375 L 264.097656 144.691406 L 266.644531 6.058594 L 3.476562 1.226562 Z M 0.929688 139.859375 " clip-rule="nonzero"/></clipPath><clipPath id="9602aa7c47"><rect x="0" width="267" y="0" height="145"/></clipPath><clipPath id="e80c033dcf"><path d="M 0.699219 248.710938 L 139.886719 248.710938 L 139.886719 388.496094 L 0.699219 388.496094 Z M 0.699219 248.710938 " clip-rule="nonzero"/></clipPath><clipPath id="bb6afe4949"><path d="M 0.699219 0.710938 L 139.886719 0.710938 L 139.886719 140.496094 L 0.699219 140.496094 Z M 0.699219 0.710938 " clip-rule="nonzero"/></clipPath><clipPath id="d6264908b3"><rect x="0" width="140" y="0" height="141"/></clipPath><clipPath id="499d084727"><path d="M 70 0.238281 L 391.839844 0.238281 L 391.839844 322 L 70 322 Z M 70 0.238281 " clip-rule="nonzero"/></clipPath><clipPath id="8de412ba6e"><path d="M 70.300781 222.816406 L 292.464844 0.65625 L 391.308594 99.5 L 169.144531 321.664062 Z M 70.300781 222.816406 " clip-rule="nonzero"/></clipPath><clipPath id="e17ac79455"><path d="M 0.238281 0.480469 L 321.359375 0.480469 L 321.359375 321.839844 L 0.238281 321.839844 Z M 0.238281 0.480469 " clip-rule="nonzero"/></clipPath><clipPath id="fa5ac864a6"><path d="M 0.300781 222.816406 L 222.464844 0.65625 L 321.308594 99.5 L 99.144531 321.664062 Z M 0.300781 222.816406 " clip-rule="nonzero"/></clipPath><clipPath id="7a55943831"><rect x="0" width="322" y="0" height="322"/></clipPath><clipPath id="1de18a2ccf"><rect x="0" width="392" y="0" height="393"/></clipPath><mask id="e9e7e6b8b3"><g filter="url(#bf45191c9f)"><rect x="-150" width="1800" fill="#000000" y="-149.999993" height="1799.99992" fill-opacity="0.83"/></g></mask><clipPath id="5e16a8c2f2"><path d="M 0.359375 0.359375 L 750.359375 0.359375 L 750.359375 230.039062 L 0.359375 230.039062 Z M 0.359375 0.359375 " clip-rule="nonzero"/></clipPath><clipPath id="0c101ba2e5"><rect x="0" width="751" y="0" height="231"/></clipPath><clipPath id="9af58e3fa3"><rect x="0" width="751" y="0" height="231"/></clipPath><mask id="f9ea6750fa"><g filter="url(#bf45191c9f)"><rect x="-150" width="1800" fill="#000000" y="-149.999993" height="1799.99992" fill-opacity="0.27"/></g></mask><clipPath id="53467c4523"><path d="M 0.078125 0.238281 L 391.28125 0.238281 L 391.28125 392.878906 L 0.078125 392.878906 Z M 0.078125 0.238281 " clip-rule="nonzero"/></clipPath><clipPath id="cf00de8b94"><path d="M 0.125 1.289062 L 138.78125 1.289062 L 138.78125 264.5 L 0.125 264.5 Z M 0.125 1.289062 " clip-rule="nonzero"/></clipPath><clipPath id="9d98078c63"><path d="M 124 248 L 391 248 L 391 392.878906 L 124 392.878906 Z M 124 248 " clip-rule="nonzero"/></clipPath><clipPath id="ff30a6ea87"><path d="M 126.914062 248.710938 L 390.082031 253.542969 L 387.539062 392.175781 L 124.367188 387.34375 Z M 126.914062 248.710938 " clip-rule="nonzero"/></clipPath><clipPath id="1ff2f1d74a"><path d="M 2 1 L 266.320312 1 L 266.320312 144.398438 L 2 144.398438 Z M 2 1 " clip-rule="nonzero"/></clipPath><clipPath id="7d3b2d43a9"><path d="M 2.914062 0.710938 L 266.082031 5.542969 L 263.539062 144.175781 L 0.367188 139.34375 Z M 2.914062 0.710938 " clip-rule="nonzero"/></clipPath><clipPath id="17c3a86499"><path d="M 0.359375 139.859375 L 263.527344 144.691406 L 266.074219 6.058594 L 2.90625 1.226562 Z M 0.359375 139.859375 " clip-rule="nonzero"/></clipPath><clipPath id="05f7b35695"><rect x="0" width="267" y="0" height="145"/></clipPath><clipPath id="862f8a9003"><path d="M 0.128906 248.710938 L 139.316406 248.710938 L 139.316406 388.496094 L 0.128906 388.496094 Z M 0.128906 248.710938 " clip-rule="nonzero"/></clipPath><clipPath id="38bd2d001f"><path d="M 0.128906 0.710938 L 139.316406 0.710938 L 139.316406 140.496094 L 0.128906 140.496094 Z M 0.128906 0.710938 " clip-rule="nonzero"/></clipPath><clipPath id="19de3e023c"><rect x="0" width="140" y="0" height="141"/></clipPath><clipPath id="f9b3b2076a"><path d="M 69 0.238281 L 391 0.238281 L 391 322 L 69 322 Z M 69 0.238281 " clip-rule="nonzero"/></clipPath><clipPath id="d51281ba32"><path d="M 69.730469 222.816406 L 291.894531 0.65625 L 390.738281 99.5 L 168.574219 321.664062 Z M 69.730469 222.816406 " clip-rule="nonzero"/></clipPath><clipPath id="e150221dda"><path d="M 0.679688 0.480469 L 321.800781 0.480469 L 321.800781 321.839844 L 0.679688 321.839844 Z M 0.679688 0.480469 " clip-rule="nonzero"/></clipPath><clipPath id="2ac519903d"><path d="M 0.730469 222.816406 L 222.894531 0.65625 L 321.738281 99.5 L 99.574219 321.664062 Z M 0.730469 222.816406 " clip-rule="nonzero"/></clipPath><clipPath id="a50ed8eb98"><rect x="0" width="322" y="0" height="322"/></clipPath><clipPath id="3d181c4e94"><rect x="0" width="392" y="0" height="393"/></clipPath><clipPath id="197bcae30e"><rect x="0" width="392" y="0" height="393"/></clipPath><mask id="b54f731677"><g filter="url(#bf45191c9f)"><rect x="-150" width="1800" fill="#000000" y="-149.999993" height="1799.99992" fill-opacity="0.77"/></g></mask><clipPath id="4f3558661e"><path d="M 0.078125 0.320312 L 1033.28125 0.320312 L 1033.28125 50.960938 L 0.078125 50.960938 Z M 0.078125 0.320312 " clip-rule="nonzero"/></clipPath><clipPath id="54716c5a05"><rect x="0" width="1034" y="0" height="51"/></clipPath><clipPath id="68dda27e38"><rect x="0" width="1034" y="0" height="51"/></clipPath></defs><g clip-path="url(#f445018372)"><g clip-path="url(#f28f754df1)"><path fill="#3e4194" d="M 469.621094 879.0625 L 1030.375 879.0625 L 1030.375 318.308594 L 469.621094 318.308594 Z M 469.621094 879.0625 " fill-opacity="1" fill-rule="nonzero"/></g></g><g transform="matrix(1, 0, 0, 1, 554, 402)"><g clip-path="url(#1de18a2ccf)"><g clip-path="url(#8e35738a28)"><path fill="#ffffff" d="M 139.832031 0.652344 L 139.832031 264.5 C 63.015625 264.5 0.742188 202.230469 0.742188 125.414062 L 0.742188 0.652344 Z M 139.832031 0.652344 " fill-opacity="1" fill-rule="nonzero"/></g><g clip-path="url(#013d3b5e99)"><g clip-path="url(#8481b9a094)"><g transform="matrix(1, 0, 0, 1, 124, 248)"><g clip-path="url(#9602aa7c47)"><g clip-path="url(#4b6a7b07d3)"><g clip-path="url(#025830c906)"><g clip-path="url(#e04fdec4f3)"><path fill="#ffffff" d="M 267.289062 5.589844 L 3.484375 0.746094 C 2.074219 77.550781 63.191406 140.953125 139.996094 142.363281 L 264.734375 144.65625 Z M 267.289062 5.589844 " fill-opacity="1" fill-rule="nonzero"/></g></g></g></g></g></g></g><g clip-path="url(#e80c033dcf)"><g transform="matrix(1, 0, 0, 1, 0, 248)"><g clip-path="url(#d6264908b3)"><g clip-path="url(#bb6afe4949)"><path fill="#ffffff" d="M 0.699219 0.710938 L 139.886719 0.710938 L 139.886719 140.441406 L 0.699219 140.441406 Z M 0.699219 0.710938 " fill-opacity="1" fill-rule="nonzero"/></g></g></g></g><g clip-path="url(#499d084727)"><g clip-path="url(#8de412ba6e)"><g transform="matrix(1, 0, 0, 1, 70, 0.00000000000017053)"><g clip-path="url(#7a55943831)"><g clip-path="url(#e17ac79455)"><g clip-path="url(#fa5ac864a6)"><path fill="#ffffff" d="M 0.300781 222.816406 L 222.316406 0.804688 L 321.160156 99.648438 L 99.148438 321.664062 Z M 0.300781 222.816406 " fill-opacity="1" fill-rule="nonzero"/></g></g></g></g></g></g></g></g><g mask="url(#e9e7e6b8b3)"><g transform="matrix(1, 0, 0, 1, 375, 909)"><g clip-path="url(#9af58e3fa3)"><g clip-path="url(#5e16a8c2f2)"><g transform="matrix(1, 0, 0, 1, 0, 0.000000000000113687)"><g clip-path="url(#0c101ba2e5)"><g fill="#000000" fill-opacity="1"><g transform="translate(3.727681, 180.249447)"><g><path d="M 161.796875 -167.984375 L 102.890625 -93.25 L 169.453125 0 L 123.265625 0 L 77.3125 -65.09375 L 56.328125 -38.28125 L 56.328125 0 L 17.171875 0 L 17.171875 -167.984375 L 56.328125 -167.984375 L 56.328125 -90.15625 L 116.21875 -167.984375 Z M 161.796875 -167.984375 "/></g></g></g><g fill="#000000" fill-opacity="1"><g transform="translate(168.456761, 180.249447)"><g><path d="M 140.4375 -64.96875 C 140.4375 -62.90625 140.375 -61.132812 140.25 -59.65625 C 140.125 -58.175781 139.9375 -56.445312 139.6875 -54.46875 L 45.328125 -54.46875 C 46.890625 -45.988281 50.242188 -39.566406 55.390625 -35.203125 C 60.535156 -30.835938 66.773438 -28.65625 74.109375 -28.65625 C 80.773438 -28.65625 85.898438 -29.910156 89.484375 -32.421875 C 93.066406 -34.929688 95.554688 -38.039062 96.953125 -41.75 L 137.71875 -41.75 C 136.3125 -36.0625 133.859375 -30.5 130.359375 -25.0625 C 126.867188 -19.632812 122.425781 -14.71875 117.03125 -10.3125 C 111.632812 -5.90625 105.394531 -2.40625 98.3125 0.1875 C 91.226562 2.78125 83.40625 4.078125 74.84375 4.078125 C 64.882812 4.078125 55.765625 2.304688 47.484375 -1.234375 C 39.210938 -4.773438 32.070312 -9.671875 26.0625 -15.921875 C 20.050781 -22.179688 15.414062 -29.425781 12.15625 -37.65625 C 8.90625 -45.894531 7.28125 -54.671875 7.28125 -63.984375 C 7.28125 -73.285156 8.90625 -82.050781 12.15625 -90.28125 C 15.414062 -98.519531 20.050781 -105.765625 26.0625 -112.015625 C 32.070312 -118.273438 39.210938 -123.175781 47.484375 -126.71875 C 55.765625 -130.257812 64.882812 -132.03125 74.84375 -132.03125 C 84.894531 -132.03125 93.929688 -130.257812 101.953125 -126.71875 C 109.984375 -123.175781 116.878906 -118.316406 122.640625 -112.140625 C 128.410156 -105.972656 132.816406 -98.851562 135.859375 -90.78125 C 138.910156 -82.707031 140.4375 -74.101562 140.4375 -64.96875 Z M 46.8125 -80.15625 L 101.53125 -80.15625 C 101.113281 -84.113281 99.671875 -87.65625 97.203125 -90.78125 C 94.734375 -93.90625 91.5625 -96.351562 87.6875 -98.125 C 83.820312 -99.894531 79.582031 -100.78125 74.96875 -100.78125 C 71.101562 -100.78125 67.296875 -100.097656 63.546875 -98.734375 C 59.796875 -97.378906 56.457031 -95.175781 53.53125 -92.125 C 50.613281 -89.082031 48.375 -85.09375 46.8125 -80.15625 Z M 46.8125 -80.15625 "/></g></g></g><g fill="#000000" fill-opacity="1"><g transform="translate(309.228431, 180.249447)"><g><path d="M 52.734375 0 L 14.703125 0 L 14.703125 -127.953125 L 51.015625 -127.953125 L 51.015625 -112.515625 C 53.484375 -116.390625 56.734375 -119.785156 60.765625 -122.703125 C 64.796875 -125.628906 69.40625 -127.914062 74.59375 -129.5625 C 79.78125 -131.207031 85.300781 -132.03125 91.15625 -132.03125 C 102.757812 -132.03125 112.347656 -129.5 119.921875 -124.4375 C 127.503906 -119.375 133.125 -112.109375 136.78125 -102.640625 C 140.445312 -93.171875 142.28125 -81.847656 142.28125 -68.671875 L 142.28125 0 L 104.25 0 L 104.25 -67.8125 C 104.25 -74.894531 103.238281 -80.597656 101.21875 -84.921875 C 99.195312 -89.242188 96.414062 -92.367188 92.875 -94.296875 C 89.332031 -96.234375 85.175781 -97.203125 80.40625 -97.203125 C 75.632812 -97.203125 71.125 -95.988281 66.875 -93.5625 C 62.632812 -91.132812 59.21875 -87.425781 56.625 -82.4375 C 54.03125 -77.457031 52.734375 -71.140625 52.734375 -63.484375 Z M 52.734375 0 "/></g></g></g><g fill="#000000" fill-opacity="1"><g transform="translate(460.24992, 180.249447)"><g><path d="M 139.328125 0 L 96.828125 0 L 69.40625 -52.984375 L 52.734375 -35.203125 L 52.734375 0 L 14.703125 0 L 14.703125 -174.03125 L 52.734375 -174.03125 L 52.734375 -75.34375 L 88.6875 -127.953125 L 134.875 -127.953125 L 96.953125 -78.0625 Z M 139.328125 0 "/></g></g></g><g fill="#000000" fill-opacity="1"><g transform="translate(594.970491, 180.249447)"><g><path d="M 113.140625 -145.125 L 37.671875 -145.125 L 37.671875 -166.859375 L 113.140625 -166.859375 Z M 75.21875 4.078125 C 65.257812 4.078125 56.117188 2.304688 47.796875 -1.234375 C 39.484375 -4.773438 32.300781 -9.65625 26.25 -15.875 C 20.195312 -22.09375 15.519531 -29.316406 12.21875 -37.546875 C 8.925781 -45.785156 7.28125 -54.597656 7.28125 -63.984375 C 7.28125 -73.285156 8.925781 -82.050781 12.21875 -90.28125 C 15.519531 -98.519531 20.195312 -105.765625 26.25 -112.015625 C 32.300781 -118.273438 39.484375 -123.175781 47.796875 -126.71875 C 56.117188 -130.257812 65.300781 -132.03125 75.34375 -132.03125 C 85.46875 -132.03125 94.726562 -130.257812 103.125 -126.71875 C 111.53125 -123.175781 118.757812 -118.273438 124.8125 -112.015625 C 130.863281 -105.765625 135.554688 -98.539062 138.890625 -90.34375 C 142.222656 -82.15625 143.890625 -73.367188 143.890625 -63.984375 C 143.890625 -54.597656 142.222656 -45.785156 138.890625 -37.546875 C 135.554688 -29.316406 130.84375 -22.070312 124.75 -15.8125 C 118.65625 -9.550781 111.40625 -4.671875 103 -1.171875 C 94.601562 2.328125 85.34375 4.078125 75.21875 4.078125 Z M 75.59375 -31 C 81.601562 -31 86.890625 -32.398438 91.453125 -35.203125 C 96.023438 -38.003906 99.628906 -41.875 102.265625 -46.8125 C 104.898438 -51.75 106.21875 -57.472656 106.21875 -63.984375 C 106.21875 -70.484375 104.898438 -76.203125 102.265625 -81.140625 C 99.628906 -86.085938 96.023438 -89.957031 91.453125 -92.75 C 86.890625 -95.550781 81.601562 -96.953125 75.59375 -96.953125 C 69.664062 -96.953125 64.394531 -95.550781 59.78125 -92.75 C 55.164062 -89.957031 51.539062 -86.085938 48.90625 -81.140625 C 46.269531 -76.203125 44.953125 -70.484375 44.953125 -63.984375 C 44.953125 -57.472656 46.269531 -51.75 48.90625 -46.8125 C 51.539062 -41.875 55.164062 -38.003906 59.78125 -35.203125 C 64.394531 -32.398438 69.664062 -31 75.59375 -31 Z M 75.59375 -31 "/></g></g></g></g></g></g></g></g></g><g mask="url(#f9ea6750fa)"><g transform="matrix(1, 0, 0, 1, 586, 402)"><g clip-path="url(#197bcae30e)"><g clip-path="url(#53467c4523)"><g transform="matrix(1, 0, 0, 1, 0, 0.000000000000113687)"><g clip-path="url(#3d181c4e94)"><g clip-path="url(#cf00de8b94)"><path fill="#ffffff" d="M 139.261719 0.652344 L 139.261719 264.5 C 62.445312 264.5 0.171875 202.230469 0.171875 125.414062 L 0.171875 0.652344 Z M 139.261719 0.652344 " fill-opacity="1" fill-rule="nonzero"/></g><g clip-path="url(#9d98078c63)"><g clip-path="url(#ff30a6ea87)"><g transform="matrix(1, 0, 0, 1, 124, 248)"><g clip-path="url(#05f7b35695)"><g clip-path="url(#1ff2f1d74a)"><g clip-path="url(#7d3b2d43a9)"><g clip-path="url(#17c3a86499)"><path fill="#ffffff" d="M 266.71875 5.589844 L 2.914062 0.746094 C 1.503906 77.550781 62.621094 140.953125 139.425781 142.363281 L 264.164062 144.65625 Z M 266.71875 5.589844 " fill-opacity="1" fill-rule="nonzero"/></g></g></g></g></g></g></g><g clip-path="url(#862f8a9003)"><g transform="matrix(1, 0, 0, 1, 0, 248)"><g clip-path="url(#19de3e023c)"><g clip-path="url(#38bd2d001f)"><path fill="#ffffff" d="M 0.128906 0.710938 L 139.316406 0.710938 L 139.316406 140.441406 L 0.128906 140.441406 Z M 0.128906 0.710938 " fill-opacity="1" fill-rule="nonzero"/></g></g></g></g><g clip-path="url(#f9b3b2076a)"><g clip-path="url(#d51281ba32)"><g transform="matrix(1, 0, 0, 1, 69, 0.00000000000017053)"><g clip-path="url(#a50ed8eb98)"><g clip-path="url(#e150221dda)"><g clip-path="url(#2ac519903d)"><path fill="#ffffff" d="M 0.730469 222.816406 L 222.746094 0.804688 L 321.589844 99.648438 L 99.574219 321.664062 Z M 0.730469 222.816406 " fill-opacity="1" fill-rule="nonzero"/></g></g></g></g></g></g></g></g></g></g></g></g><g mask="url(#b54f731677)"><g transform="matrix(1, 0, 0, 1, 238, 1108)"><g clip-path="url(#68dda27e38)"><g clip-path="url(#4f3558661e)"><g transform="matrix(1, 0, 0, 1, -0.000000000000028422, 0)"><g clip-path="url(#54716c5a05)"><g fill="#191919" fill-opacity="1"><g transform="translate(0.628331, 37.662227)"><g><path d="M 21.53125 -17.625 C 20.84375 -19.070312 19.847656 -20.191406 18.546875 -20.984375 C 17.242188 -21.773438 15.722656 -22.171875 13.984375 -22.171875 C 12.253906 -22.171875 10.691406 -21.773438 9.296875 -20.984375 C 7.910156 -20.191406 6.820312 -19.050781 6.03125 -17.5625 C 5.238281 -16.082031 4.84375 -14.367188 4.84375 -12.421875 C 4.84375 -10.472656 5.238281 -8.765625 6.03125 -7.296875 C 6.820312 -5.828125 7.910156 -4.691406 9.296875 -3.890625 C 10.691406 -3.097656 12.253906 -2.703125 13.984375 -2.703125 C 16.410156 -2.703125 18.40625 -3.425781 19.96875 -4.875 C 21.53125 -6.320312 22.441406 -8.28125 22.703125 -10.75 L 12.8125 -10.75 L 12.8125 -13.390625 L 26.15625 -13.390625 L 26.15625 -10.890625 C 25.96875 -8.847656 25.328125 -6.976562 24.234375 -5.28125 C 23.148438 -3.582031 21.71875 -2.238281 19.9375 -1.25 C 18.15625 -0.269531 16.171875 0.21875 13.984375 0.21875 C 11.679688 0.21875 9.582031 -0.320312 7.6875 -1.40625 C 5.789062 -2.488281 4.289062 -3.988281 3.1875 -5.90625 C 2.082031 -7.832031 1.53125 -10.003906 1.53125 -12.421875 C 1.53125 -14.835938 2.082031 -17.015625 3.1875 -18.953125 C 4.289062 -20.890625 5.789062 -22.394531 7.6875 -23.46875 C 9.582031 -24.550781 11.679688 -25.09375 13.984375 -25.09375 C 16.617188 -25.09375 18.953125 -24.4375 20.984375 -23.125 C 23.015625 -21.820312 24.488281 -19.988281 25.40625 -17.625 Z M 21.53125 -17.625 "/></g></g></g><g fill="#191919" fill-opacity="1"><g transform="translate(37.096254, 37.662227)"><g><path d="M 5.984375 -22.171875 L 5.984375 -13.875 L 15.015625 -13.875 L 15.015625 -11.21875 L 5.984375 -11.21875 L 5.984375 -2.671875 L 16.09375 -2.671875 L 16.09375 0 L 2.734375 0 L 2.734375 -24.84375 L 16.09375 -24.84375 L 16.09375 -22.171875 Z M 5.984375 -22.171875 "/></g></g></g><g fill="#191919" fill-opacity="1"><g transform="translate(64.137966, 37.662227)"><g><path d="M 10.609375 0.25 C 8.972656 0.25 7.503906 -0.0390625 6.203125 -0.625 C 4.910156 -1.207031 3.894531 -2.015625 3.15625 -3.046875 C 2.425781 -4.078125 2.050781 -5.269531 2.03125 -6.625 L 5.484375 -6.625 C 5.597656 -5.457031 6.078125 -4.472656 6.921875 -3.671875 C 7.765625 -2.878906 8.992188 -2.484375 10.609375 -2.484375 C 12.148438 -2.484375 13.363281 -2.867188 14.25 -3.640625 C 15.144531 -4.421875 15.59375 -5.414062 15.59375 -6.625 C 15.59375 -7.570312 15.332031 -8.34375 14.8125 -8.9375 C 14.289062 -9.53125 13.632812 -9.976562 12.84375 -10.28125 C 12.0625 -10.59375 11.007812 -10.925781 9.6875 -11.28125 C 8.039062 -11.707031 6.722656 -12.132812 5.734375 -12.5625 C 4.753906 -12.988281 3.914062 -13.660156 3.21875 -14.578125 C 2.519531 -15.492188 2.171875 -16.722656 2.171875 -18.265625 C 2.171875 -19.609375 2.515625 -20.800781 3.203125 -21.84375 C 3.890625 -22.894531 4.851562 -23.703125 6.09375 -24.265625 C 7.34375 -24.835938 8.773438 -25.125 10.390625 -25.125 C 12.710938 -25.125 14.613281 -24.539062 16.09375 -23.375 C 17.582031 -22.21875 18.421875 -20.679688 18.609375 -18.765625 L 15.0625 -18.765625 C 14.9375 -19.710938 14.4375 -20.546875 13.5625 -21.265625 C 12.6875 -21.992188 11.523438 -22.359375 10.078125 -22.359375 C 8.722656 -22.359375 7.617188 -22.003906 6.765625 -21.296875 C 5.910156 -20.597656 5.484375 -19.617188 5.484375 -18.359375 C 5.484375 -17.460938 5.738281 -16.726562 6.25 -16.15625 C 6.757812 -15.59375 7.382812 -15.160156 8.125 -14.859375 C 8.875 -14.566406 9.925781 -14.226562 11.28125 -13.84375 C 12.914062 -13.394531 14.234375 -12.953125 15.234375 -12.515625 C 16.234375 -12.078125 17.085938 -11.398438 17.796875 -10.484375 C 18.503906 -9.566406 18.859375 -8.328125 18.859375 -6.765625 C 18.859375 -5.554688 18.535156 -4.414062 17.890625 -3.34375 C 17.253906 -2.28125 16.304688 -1.414062 15.046875 -0.75 C 13.796875 -0.0820312 12.316406 0.25 10.609375 0.25 Z M 10.609375 0.25 "/></g></g></g><g fill="#191919" fill-opacity="1"><g transform="translate(93.811903, 37.662227)"><g><path d="M 18.015625 -24.8125 L 18.015625 -22.171875 L 11.25 -22.171875 L 11.25 0 L 8.015625 0 L 8.015625 -22.171875 L 1.203125 -22.171875 L 1.203125 -24.8125 Z M 18.015625 -24.8125 "/></g></g></g><g fill="#191919" fill-opacity="1"><g transform="translate(121.849581, 37.662227)"><g><path d="M 5.984375 -24.8125 L 5.984375 0 L 2.734375 0 L 2.734375 -24.8125 Z M 5.984375 -24.8125 "/></g></g></g><g fill="#191919" fill-opacity="1"><g transform="translate(139.393937, 37.662227)"><g><path d="M 13.984375 0.25 C 11.679688 0.25 9.582031 -0.285156 7.6875 -1.359375 C 5.789062 -2.441406 4.289062 -3.953125 3.1875 -5.890625 C 2.082031 -7.828125 1.53125 -10.003906 1.53125 -12.421875 C 1.53125 -14.835938 2.082031 -17.015625 3.1875 -18.953125 C 4.289062 -20.890625 5.789062 -22.394531 7.6875 -23.46875 C 9.582031 -24.550781 11.679688 -25.09375 13.984375 -25.09375 C 16.304688 -25.09375 18.414062 -24.550781 20.3125 -23.46875 C 22.21875 -22.394531 23.71875 -20.894531 24.8125 -18.96875 C 25.90625 -17.050781 26.453125 -14.867188 26.453125 -12.421875 C 26.453125 -9.972656 25.90625 -7.785156 24.8125 -5.859375 C 23.71875 -3.941406 22.21875 -2.441406 20.3125 -1.359375 C 18.414062 -0.285156 16.304688 0.25 13.984375 0.25 Z M 13.984375 -2.5625 C 15.722656 -2.5625 17.285156 -2.960938 18.671875 -3.765625 C 20.054688 -4.578125 21.144531 -5.726562 21.9375 -7.21875 C 22.738281 -8.71875 23.140625 -10.453125 23.140625 -12.421875 C 23.140625 -14.410156 22.738281 -16.144531 21.9375 -17.625 C 21.144531 -19.113281 20.0625 -20.257812 18.6875 -21.0625 C 17.3125 -21.875 15.742188 -22.28125 13.984375 -22.28125 C 12.234375 -22.28125 10.664062 -21.875 9.28125 -21.0625 C 7.90625 -20.257812 6.820312 -19.113281 6.03125 -17.625 C 5.238281 -16.144531 4.84375 -14.410156 4.84375 -12.421875 C 4.84375 -10.453125 5.238281 -8.71875 6.03125 -7.21875 C 6.820312 -5.726562 7.910156 -4.578125 9.296875 -3.765625 C 10.691406 -2.960938 12.253906 -2.5625 13.984375 -2.5625 Z M 17.546875 -30.171875 L 9.96875 -26.125 L 9.96875 -28.546875 L 17.546875 -32.984375 Z M 17.546875 -30.171875 "/></g></g></g><g fill="#191919" fill-opacity="1"><g transform="translate(176.146416, 37.662227)"><g><path d="M 22.25 0 L 19 0 L 5.984375 -19.75 L 5.984375 0 L 2.734375 0 L 2.734375 -24.84375 L 5.984375 -24.84375 L 19 -5.125 L 19 -24.84375 L 22.25 -24.84375 Z M 22.25 0 "/></g></g></g><g fill="#191919" fill-opacity="1"><g transform="translate(209.94654, 37.662227)"><g/></g></g><g fill="#191919" fill-opacity="1"><g transform="translate(228.237878, 37.662227)"><g><path d="M 5.984375 -24.8125 L 5.984375 0 L 2.734375 0 L 2.734375 -24.8125 Z M 5.984375 -24.8125 "/></g></g></g><g fill="#191919" fill-opacity="1"><g transform="translate(245.782234, 37.662227)"><g><path d="M 22.25 0 L 19 0 L 5.984375 -19.75 L 5.984375 0 L 2.734375 0 L 2.734375 -24.84375 L 5.984375 -24.84375 L 19 -5.125 L 19 -24.84375 L 22.25 -24.84375 Z M 22.25 0 "/></g></g></g><g fill="#191919" fill-opacity="1"><g transform="translate(279.582359, 37.662227)"><g><path d="M 18.015625 -24.8125 L 18.015625 -22.171875 L 11.25 -22.171875 L 11.25 0 L 8.015625 0 L 8.015625 -22.171875 L 1.203125 -22.171875 L 1.203125 -24.8125 Z M 18.015625 -24.8125 "/></g></g></g><g fill="#191919" fill-opacity="1"><g transform="translate(307.620036, 37.662227)"><g><path d="M 5.984375 -22.171875 L 5.984375 -13.875 L 15.015625 -13.875 L 15.015625 -11.21875 L 5.984375 -11.21875 L 5.984375 -2.671875 L 16.09375 -2.671875 L 16.09375 0 L 2.734375 0 L 2.734375 -24.84375 L 16.09375 -24.84375 L 16.09375 -22.171875 Z M 5.984375 -22.171875 "/></g></g></g><g fill="#191919" fill-opacity="1"><g transform="translate(334.661749, 37.662227)"><g><path d="M 5.984375 -2.640625 L 14.671875 -2.640625 L 14.671875 0 L 2.734375 0 L 2.734375 -24.8125 L 5.984375 -24.8125 Z M 5.984375 -2.640625 "/></g></g></g><g fill="#191919" fill-opacity="1"><g transform="translate(358.822255, 37.662227)"><g><path d="M 5.984375 -24.8125 L 5.984375 0 L 2.734375 0 L 2.734375 -24.8125 Z M 5.984375 -24.8125 "/></g></g></g><g fill="#191919" fill-opacity="1"><g transform="translate(376.366611, 37.662227)"><g><path d="M 21.53125 -17.625 C 20.84375 -19.070312 19.847656 -20.191406 18.546875 -20.984375 C 17.242188 -21.773438 15.722656 -22.171875 13.984375 -22.171875 C 12.253906 -22.171875 10.691406 -21.773438 9.296875 -20.984375 C 7.910156 -20.191406 6.820312 -19.050781 6.03125 -17.5625 C 5.238281 -16.082031 4.84375 -14.367188 4.84375 -12.421875 C 4.84375 -10.472656 5.238281 -8.765625 6.03125 -7.296875 C 6.820312 -5.828125 7.910156 -4.691406 9.296875 -3.890625 C 10.691406 -3.097656 12.253906 -2.703125 13.984375 -2.703125 C 16.410156 -2.703125 18.40625 -3.425781 19.96875 -4.875 C 21.53125 -6.320312 22.441406 -8.28125 22.703125 -10.75 L 12.8125 -10.75 L 12.8125 -13.390625 L 26.15625 -13.390625 L 26.15625 -10.890625 C 25.96875 -8.847656 25.328125 -6.976562 24.234375 -5.28125 C 23.148438 -3.582031 21.71875 -2.238281 19.9375 -1.25 C 18.15625 -0.269531 16.171875 0.21875 13.984375 0.21875 C 11.679688 0.21875 9.582031 -0.320312 7.6875 -1.40625 C 5.789062 -2.488281 4.289062 -3.988281 3.1875 -5.90625 C 2.082031 -7.832031 1.53125 -10.003906 1.53125 -12.421875 C 1.53125 -14.835938 2.082031 -17.015625 3.1875 -18.953125 C 4.289062 -20.890625 5.789062 -22.394531 7.6875 -23.46875 C 9.582031 -24.550781 11.679688 -25.09375 13.984375 -25.09375 C 16.617188 -25.09375 18.953125 -24.4375 20.984375 -23.125 C 23.015625 -21.820312 24.488281 -19.988281 25.40625 -17.625 Z M 21.53125 -17.625 "/></g></g></g><g fill="#191919" fill-opacity="1"><g transform="translate(412.834533, 37.662227)"><g><path d="M 5.984375 -22.171875 L 5.984375 -13.875 L 15.015625 -13.875 L 15.015625 -11.21875 L 5.984375 -11.21875 L 5.984375 -2.671875 L 16.09375 -2.671875 L 16.09375 0 L 2.734375 0 L 2.734375 -24.84375 L 16.09375 -24.84375 L 16.09375 -22.171875 Z M 5.984375 -22.171875 "/></g></g></g><g fill="#191919" fill-opacity="1"><g transform="translate(439.876246, 37.662227)"><g><path d="M 22.25 0 L 19 0 L 5.984375 -19.75 L 5.984375 0 L 2.734375 0 L 2.734375 -24.84375 L 5.984375 -24.84375 L 19 -5.125 L 19 -24.84375 L 22.25 -24.84375 Z M 22.25 0 "/></g></g></g><g fill="#191919" fill-opacity="1"><g transform="translate(473.676371, 37.662227)"><g><path d="M 18.015625 -24.8125 L 18.015625 -22.171875 L 11.25 -22.171875 L 11.25 0 L 8.015625 0 L 8.015625 -22.171875 L 1.203125 -22.171875 L 1.203125 -24.8125 Z M 18.015625 -24.8125 "/></g></g></g><g fill="#191919" fill-opacity="1"><g transform="translate(501.714049, 37.662227)"><g><path d="M 5.984375 -22.171875 L 5.984375 -13.875 L 15.015625 -13.875 L 15.015625 -11.21875 L 5.984375 -11.21875 L 5.984375 -2.671875 L 16.09375 -2.671875 L 16.09375 0 L 2.734375 0 L 2.734375 -24.84375 L 16.09375 -24.84375 L 16.09375 -22.171875 Z M 5.984375 -22.171875 "/></g></g></g><g fill="#191919" fill-opacity="1"><g transform="translate(528.755761, 37.662227)"><g><path d="M 6.09375 -4.484375 L 2.09375 5.09375 L -0.078125 5.09375 L 2.53125 -4.484375 Z M 6.09375 -4.484375 "/></g></g></g><g fill="#191919" fill-opacity="1"><g transform="translate(544.59271, 37.662227)"><g/></g></g><g fill="#191919" fill-opacity="1"><g transform="translate(562.884082, 37.662227)"><g><path d="M 17.40625 -5.515625 L 6.578125 -5.515625 L 4.59375 0 L 1.171875 0 L 10.140625 -24.671875 L 13.875 -24.671875 L 22.8125 0 L 19.40625 0 Z M 16.484375 -8.15625 L 12 -20.6875 L 7.515625 -8.15625 Z M 16.484375 -8.15625 "/></g></g></g><g fill="#191919" fill-opacity="1"><g transform="translate(595.652634, 37.662227)"><g><path d="M 18.015625 -24.8125 L 18.015625 -22.171875 L 11.25 -22.171875 L 11.25 0 L 8.015625 0 L 8.015625 -22.171875 L 1.203125 -22.171875 L 1.203125 -24.8125 Z M 18.015625 -24.8125 "/></g></g></g><g fill="#191919" fill-opacity="1"><g transform="translate(623.690312, 37.662227)"><g><path d="M 5.984375 -22.171875 L 5.984375 -13.875 L 15.015625 -13.875 L 15.015625 -11.21875 L 5.984375 -11.21875 L 5.984375 -2.671875 L 16.09375 -2.671875 L 16.09375 0 L 2.734375 0 L 2.734375 -24.84375 L 16.09375 -24.84375 L 16.09375 -22.171875 Z M 5.984375 -22.171875 "/></g></g></g><g fill="#191919" fill-opacity="1"><g transform="translate(650.732058, 37.662227)"><g><path d="M 22.25 0 L 19 0 L 5.984375 -19.75 L 5.984375 0 L 2.734375 0 L 2.734375 -24.84375 L 5.984375 -24.84375 L 19 -5.125 L 19 -24.84375 L 22.25 -24.84375 Z M 22.25 0 "/></g></g></g><g fill="#191919" fill-opacity="1"><g transform="translate(684.53215, 37.662227)"><g><path d="M 1.53125 -12.421875 C 1.53125 -14.835938 2.078125 -17.015625 3.171875 -18.953125 C 4.265625 -20.890625 5.753906 -22.398438 7.640625 -23.484375 C 9.523438 -24.578125 11.617188 -25.125 13.921875 -25.125 C 16.617188 -25.125 18.976562 -24.472656 21 -23.171875 C 23.019531 -21.867188 24.488281 -20.019531 25.40625 -17.625 L 21.53125 -17.625 C 20.84375 -19.113281 19.851562 -20.257812 18.5625 -21.0625 C 17.269531 -21.875 15.722656 -22.28125 13.921875 -22.28125 C 12.179688 -22.28125 10.625 -21.875 9.25 -21.0625 C 7.875 -20.257812 6.796875 -19.113281 6.015625 -17.625 C 5.234375 -16.144531 4.84375 -14.410156 4.84375 -12.421875 C 4.84375 -10.453125 5.234375 -8.722656 6.015625 -7.234375 C 6.796875 -5.753906 7.875 -4.609375 9.25 -3.796875 C 10.625 -2.992188 12.179688 -2.59375 13.921875 -2.59375 C 15.722656 -2.59375 17.269531 -2.988281 18.5625 -3.78125 C 19.851562 -4.582031 20.84375 -5.726562 21.53125 -7.21875 L 25.40625 -7.21875 C 24.488281 -4.851562 23.019531 -3.019531 21 -1.71875 C 18.976562 -0.425781 16.617188 0.21875 13.921875 0.21875 C 11.617188 0.21875 9.523438 -0.320312 7.640625 -1.40625 C 5.753906 -2.488281 4.265625 -3.988281 3.171875 -5.90625 C 2.078125 -7.832031 1.53125 -10.003906 1.53125 -12.421875 Z M 1.53125 -12.421875 "/></g></g></g><g fill="#191919" fill-opacity="1"><g transform="translate(720.786663, 37.662227)"><g><path d="M 5.984375 -24.8125 L 5.984375 0 L 2.734375 0 L 2.734375 -24.8125 Z M 5.984375 -24.8125 "/></g></g></g><g fill="#191919" fill-opacity="1"><g transform="translate(738.331052, 37.662227)"><g><path d="M 13.984375 0.25 C 11.679688 0.25 9.582031 -0.285156 7.6875 -1.359375 C 5.789062 -2.441406 4.289062 -3.953125 3.1875 -5.890625 C 2.082031 -7.828125 1.53125 -10.003906 1.53125 -12.421875 C 1.53125 -14.835938 2.082031 -17.015625 3.1875 -18.953125 C 4.289062 -20.890625 5.789062 -22.394531 7.6875 -23.46875 C 9.582031 -24.550781 11.679688 -25.09375 13.984375 -25.09375 C 16.304688 -25.09375 18.414062 -24.550781 20.3125 -23.46875 C 22.21875 -22.394531 23.71875 -20.894531 24.8125 -18.96875 C 25.90625 -17.050781 26.453125 -14.867188 26.453125 -12.421875 C 26.453125 -9.972656 25.90625 -7.785156 24.8125 -5.859375 C 23.71875 -3.941406 22.21875 -2.441406 20.3125 -1.359375 C 18.414062 -0.285156 16.304688 0.25 13.984375 0.25 Z M 13.984375 -2.5625 C 15.722656 -2.5625 17.285156 -2.960938 18.671875 -3.765625 C 20.054688 -4.578125 21.144531 -5.726562 21.9375 -7.21875 C 22.738281 -8.71875 23.140625 -10.453125 23.140625 -12.421875 C 23.140625 -14.410156 22.738281 -16.144531 21.9375 -17.625 C 21.144531 -19.113281 20.0625 -20.257812 18.6875 -21.0625 C 17.3125 -21.875 15.742188 -22.28125 13.984375 -22.28125 C 12.234375 -22.28125 10.664062 -21.875 9.28125 -21.0625 C 7.90625 -20.257812 6.820312 -19.113281 6.03125 -17.625 C 5.238281 -16.144531 4.84375 -14.410156 4.84375 -12.421875 C 4.84375 -10.453125 5.238281 -8.71875 6.03125 -7.21875 C 6.820312 -5.726562 7.910156 -4.578125 9.296875 -3.765625 C 10.691406 -2.960938 12.253906 -2.5625 13.984375 -2.5625 Z M 17.546875 -30.171875 L 9.96875 -26.125 L 9.96875 -28.546875 L 17.546875 -32.984375 Z M 17.546875 -30.171875 "/></g></g></g><g fill="#191919" fill-opacity="1"><g transform="translate(775.083464, 37.662227)"><g><path d="M 22.25 0 L 19 0 L 5.984375 -19.75 L 5.984375 0 L 2.734375 0 L 2.734375 -24.84375 L 5.984375 -24.84375 L 19 -5.125 L 19 -24.84375 L 22.25 -24.84375 Z M 22.25 0 "/></g></g></g><g fill="#191919" fill-opacity="1"><g transform="translate(808.883623, 37.662227)"><g/></g></g><g fill="#191919" fill-opacity="1"><g transform="translate(827.174961, 37.662227)"><g><path d="M 21.859375 -24.8125 L 21.859375 0 L 18.609375 0 L 18.609375 -11.25 L 5.984375 -11.25 L 5.984375 0 L 2.734375 0 L 2.734375 -24.8125 L 5.984375 -24.8125 L 5.984375 -13.921875 L 18.609375 -13.921875 L 18.609375 -24.8125 Z M 21.859375 -24.8125 "/></g></g></g><g fill="#191919" fill-opacity="1"><g transform="translate(860.583774, 37.662227)"><g><path d="M 5.90625 -24.8125 L 5.90625 -9.109375 C 5.90625 -6.898438 6.441406 -5.257812 7.515625 -4.1875 C 8.597656 -3.125 10.101562 -2.59375 12.03125 -2.59375 C 13.925781 -2.59375 15.414062 -3.125 16.5 -4.1875 C 17.582031 -5.257812 18.125 -6.898438 18.125 -9.109375 L 18.125 -24.8125 L 21.359375 -24.8125 L 21.359375 -9.140625 C 21.359375 -7.078125 20.941406 -5.335938 20.109375 -3.921875 C 19.273438 -2.515625 18.148438 -1.46875 16.734375 -0.78125 C 15.328125 -0.09375 13.75 0.25 12 0.25 C 10.238281 0.25 8.648438 -0.09375 7.234375 -0.78125 C 5.828125 -1.46875 4.710938 -2.515625 3.890625 -3.921875 C 3.078125 -5.335938 2.671875 -7.078125 2.671875 -9.140625 L 2.671875 -24.8125 Z M 5.90625 -24.8125 "/></g></g></g><g fill="#191919" fill-opacity="1"><g transform="translate(893.387934, 37.662227)"><g><path d="M 27.90625 -24.625 L 27.90625 0 L 24.671875 0 L 24.671875 -18.359375 L 16.484375 0 L 14.203125 0 L 5.984375 -18.40625 L 5.984375 0 L 2.734375 0 L 2.734375 -24.625 L 6.234375 -24.625 L 15.34375 -4.265625 L 24.453125 -24.625 Z M 27.90625 -24.625 "/></g></g></g><g fill="#191919" fill-opacity="1"><g transform="translate(932.808211, 37.662227)"><g><path d="M 17.40625 -5.515625 L 6.578125 -5.515625 L 4.59375 0 L 1.171875 0 L 10.140625 -24.671875 L 13.875 -24.671875 L 22.8125 0 L 19.40625 0 Z M 16.484375 -8.15625 L 12 -20.6875 L 7.515625 -8.15625 Z M 16.484375 -8.15625 "/></g></g></g><g fill="#191919" fill-opacity="1"><g transform="translate(965.57683, 37.662227)"><g><path d="M 22.25 0 L 19 0 L 5.984375 -19.75 L 5.984375 0 L 2.734375 0 L 2.734375 -24.84375 L 5.984375 -24.84375 L 19 -5.125 L 19 -24.84375 L 22.25 -24.84375 Z M 22.25 0 "/></g></g></g><g fill="#191919" fill-opacity="1"><g transform="translate(999.376989, 37.662227)"><g><path d="M 17.40625 -5.515625 L 6.578125 -5.515625 L 4.59375 0 L 1.171875 0 L 10.140625 -24.671875 L 13.875 -24.671875 L 22.8125 0 L 19.40625 0 Z M 16.484375 -8.15625 L 12 -20.6875 L 7.515625 -8.15625 Z M 16.484375 -8.15625 "/></g></g></g></g></g></g></g></g></g></svg>