<svg xmlns="http://www.w3.org/2000/svg" xmlns:xlink="http://www.w3.org/1999/xlink" width="2000" zoomAndPan="magnify" viewBox="0 0 1500 1499.999933" height="2000" preserveAspectRatio="xMidYMid meet" version="1.0"><defs><filter x="0%" y="0%" width="100%" height="100%" id="c2dec21866"><feColorMatrix values="0 0 0 0 1 0 0 0 0 1 0 0 0 0 1 0 0 0 1 0" color-interpolation-filters="sRGB"/></filter><clipPath id="c057c5c76c"><path d="M 0.78125 0.78125 L 1391.28125 0.78125 L 1391.28125 1391.28125 L 0.78125 1391.28125 Z M 0.78125 0.78125 " clip-rule="nonzero"/></clipPath><clipPath id="e72d6d5d33"><path d="M 374.820312 0.78125 L 1017.09375 0.78125 C 1023.214844 0.78125 1029.332031 0.929688 1035.445312 1.230469 C 1041.5625 1.53125 1047.664062 1.980469 1053.753906 2.582031 C 1059.847656 3.179688 1065.921875 3.929688 1071.976562 4.828125 C 1078.03125 5.726562 1084.0625 6.773438 1090.066406 7.96875 C 1096.070312 9.160156 1102.039062 10.503906 1107.976562 11.988281 C 1113.914062 13.476562 1119.8125 15.109375 1125.671875 16.886719 C 1131.53125 18.664062 1137.339844 20.582031 1143.105469 22.644531 C 1148.867188 24.707031 1154.578125 26.910156 1160.230469 29.253906 C 1165.886719 31.59375 1171.480469 34.074219 1177.015625 36.691406 C 1182.550781 39.308594 1188.015625 42.058594 1193.414062 44.945312 C 1198.8125 47.832031 1204.136719 50.847656 1209.386719 53.996094 C 1214.640625 57.140625 1219.808594 60.417969 1224.898438 63.816406 C 1229.988281 67.21875 1234.992188 70.742188 1239.910156 74.386719 C 1244.824219 78.035156 1249.648438 81.800781 1254.382812 85.683594 C 1259.113281 89.566406 1263.746094 93.5625 1268.285156 97.675781 C 1272.820312 101.785156 1277.25 106.003906 1281.578125 110.332031 C 1285.910156 114.664062 1290.128906 119.09375 1294.238281 123.628906 C 1298.351562 128.164062 1302.347656 132.800781 1306.230469 137.53125 C 1310.113281 142.261719 1313.878906 147.089844 1317.523438 152.003906 C 1321.171875 156.921875 1324.695312 161.925781 1328.097656 167.015625 C 1331.496094 172.105469 1334.769531 177.273438 1337.917969 182.523438 C 1341.066406 187.777344 1344.082031 193.101562 1346.96875 198.5 C 1349.851562 203.898438 1352.605469 209.363281 1355.222656 214.898438 C 1357.839844 220.429688 1360.320312 226.027344 1362.660156 231.679688 C 1365.003906 237.335938 1367.207031 243.046875 1369.269531 248.808594 C 1371.332031 254.574219 1373.25 260.382812 1375.027344 266.242188 C 1376.804688 272.101562 1378.4375 277.996094 1379.925781 283.9375 C 1381.410156 289.875 1382.753906 295.84375 1383.945312 301.847656 C 1385.140625 307.851562 1386.1875 313.882812 1387.085938 319.9375 C 1387.984375 325.992188 1388.734375 332.066406 1389.332031 338.15625 C 1389.933594 344.25 1390.382812 350.351562 1390.683594 356.46875 C 1390.984375 362.582031 1391.132812 368.699219 1391.132812 374.820312 L 1391.132812 1017.09375 C 1391.132812 1023.214844 1390.984375 1029.332031 1390.683594 1035.445312 C 1390.382812 1041.5625 1389.933594 1047.664062 1389.332031 1053.753906 C 1388.734375 1059.847656 1387.984375 1065.921875 1387.085938 1071.976562 C 1386.1875 1078.03125 1385.140625 1084.0625 1383.945312 1090.066406 C 1382.753906 1096.070312 1381.410156 1102.039062 1379.925781 1107.976562 C 1378.4375 1113.914062 1376.804688 1119.8125 1375.027344 1125.671875 C 1373.25 1131.53125 1371.332031 1137.339844 1369.269531 1143.105469 C 1367.207031 1148.867188 1365.003906 1154.578125 1362.660156 1160.230469 C 1360.320312 1165.886719 1357.839844 1171.480469 1355.222656 1177.015625 C 1352.605469 1182.550781 1349.851562 1188.015625 1346.96875 1193.414062 C 1344.082031 1198.8125 1341.066406 1204.136719 1337.917969 1209.386719 C 1334.769531 1214.640625 1331.496094 1219.808594 1328.097656 1224.898438 C 1324.695312 1229.988281 1321.171875 1234.992188 1317.523438 1239.910156 C 1313.878906 1244.824219 1310.113281 1249.648438 1306.230469 1254.382812 C 1302.347656 1259.113281 1298.351562 1263.746094 1294.238281 1268.285156 C 1290.128906 1272.820312 1285.910156 1277.25 1281.578125 1281.578125 C 1277.25 1285.910156 1272.820312 1290.128906 1268.285156 1294.238281 C 1263.746094 1298.351562 1259.113281 1302.347656 1254.382812 1306.230469 C 1249.648438 1310.113281 1244.824219 1313.878906 1239.910156 1317.523438 C 1234.992188 1321.171875 1229.988281 1324.695312 1224.898438 1328.097656 C 1219.808594 1331.496094 1214.640625 1334.769531 1209.386719 1337.917969 C 1204.136719 1341.066406 1198.8125 1344.082031 1193.414062 1346.96875 C 1188.015625 1349.851562 1182.550781 1352.605469 1177.015625 1355.222656 C 1171.484375 1357.839844 1165.886719 1360.320312 1160.230469 1362.660156 C 1154.578125 1365.003906 1148.867188 1367.207031 1143.105469 1369.269531 C 1137.339844 1371.332031 1131.53125 1373.25 1125.671875 1375.027344 C 1119.8125 1376.804688 1113.914062 1378.4375 1107.976562 1379.925781 C 1102.039062 1381.410156 1096.070312 1382.753906 1090.066406 1383.945312 C 1084.0625 1385.140625 1078.03125 1386.1875 1071.976562 1387.085938 C 1065.921875 1387.984375 1059.847656 1388.734375 1053.753906 1389.332031 C 1047.664062 1389.933594 1041.5625 1390.382812 1035.445312 1390.683594 C 1029.332031 1390.984375 1023.214844 1391.132812 1017.09375 1391.132812 L 374.820312 1391.132812 C 368.699219 1391.132812 362.582031 1390.984375 356.46875 1390.683594 C 350.351562 1390.382812 344.25 1389.933594 338.15625 1389.332031 C 332.066406 1388.734375 325.992188 1387.984375 319.9375 1387.085938 C 313.882812 1386.1875 307.851562 1385.140625 301.847656 1383.945312 C 295.84375 1382.753906 289.875 1381.410156 283.9375 1379.925781 C 278 1378.4375 272.101562 1376.804688 266.242188 1375.027344 C 260.382812 1373.25 254.574219 1371.332031 248.808594 1369.269531 C 243.046875 1367.207031 237.335938 1365.003906 231.679688 1362.660156 C 226.027344 1360.320312 220.429688 1357.839844 214.898438 1355.222656 C 209.363281 1352.605469 203.898438 1349.851562 198.5 1346.96875 C 193.101562 1344.082031 187.777344 1341.066406 182.523438 1337.917969 C 177.273438 1334.769531 172.105469 1331.496094 167.015625 1328.097656 C 161.925781 1324.695312 156.921875 1321.171875 152.003906 1317.523438 C 147.089844 1313.878906 142.265625 1310.113281 137.53125 1306.230469 C 132.800781 1302.347656 128.164062 1298.351562 123.628906 1294.238281 C 119.09375 1290.128906 114.664062 1285.910156 110.332031 1281.578125 C 106.003906 1277.25 101.785156 1272.820312 97.675781 1268.285156 C 93.5625 1263.746094 89.566406 1259.113281 85.683594 1254.382812 C 81.800781 1249.648438 78.035156 1244.824219 74.386719 1239.910156 C 70.742188 1234.992188 67.21875 1229.988281 63.816406 1224.898438 C 60.417969 1219.808594 57.140625 1214.640625 53.996094 1209.386719 C 50.847656 1204.136719 47.832031 1198.8125 44.945312 1193.414062 C 42.0625 1188.015625 39.308594 1182.550781 36.691406 1177.015625 C 34.074219 1171.484375 31.59375 1165.886719 29.253906 1160.230469 C 26.910156 1154.578125 24.707031 1148.867188 22.644531 1143.105469 C 20.582031 1137.339844 18.664062 1131.53125 16.886719 1125.671875 C 15.109375 1119.8125 13.476562 1113.914062 11.988281 1107.976562 C 10.503906 1102.039062 9.160156 1096.070312 7.96875 1090.066406 C 6.773438 1084.0625 5.726562 1078.03125 4.828125 1071.976562 C 3.929688 1065.921875 3.179688 1059.847656 2.582031 1053.753906 C 1.980469 1047.664062 1.53125 1041.5625 1.230469 1035.445312 C 0.929688 1029.332031 0.78125 1023.214844 0.78125 1017.09375 L 0.78125 374.820312 C 0.78125 368.699219 0.929688 362.582031 1.230469 356.46875 C 1.53125 350.351562 1.980469 344.25 2.582031 338.15625 C 3.179688 332.066406 3.929688 325.992188 4.828125 319.9375 C 5.726562 313.882812 6.773438 307.851562 7.96875 301.847656 C 9.160156 295.84375 10.503906 289.875 11.988281 283.9375 C 13.476562 277.996094 15.109375 272.101562 16.886719 266.242188 C 18.664062 260.382812 20.582031 254.574219 22.644531 248.808594 C 24.707031 243.046875 26.910156 237.335938 29.253906 231.679688 C 31.59375 226.027344 34.074219 220.429688 36.691406 214.898438 C 39.308594 209.363281 42.0625 203.898438 44.945312 198.5 C 47.832031 193.101562 50.847656 187.777344 53.996094 182.523438 C 57.140625 177.273438 60.417969 172.105469 63.816406 167.015625 C 67.21875 161.925781 70.742188 156.921875 74.386719 152.003906 C 78.035156 147.089844 81.800781 142.261719 85.683594 137.53125 C 89.566406 132.800781 93.5625 128.164062 97.675781 123.628906 C 101.785156 119.09375 106.003906 114.664062 110.332031 110.332031 C 114.664062 106.003906 119.09375 101.785156 123.628906 97.675781 C 128.164062 93.5625 132.800781 89.566406 137.53125 85.683594 C 142.265625 81.800781 147.089844 78.035156 152.003906 74.386719 C 156.921875 70.742188 161.925781 67.21875 167.015625 63.816406 C 172.105469 60.417969 177.273438 57.140625 182.523438 53.996094 C 187.777344 50.847656 193.101562 47.832031 198.5 44.945312 C 203.898438 42.058594 209.363281 39.308594 214.898438 36.691406 C 220.429688 34.074219 226.027344 31.59375 231.679688 29.253906 C 237.335938 26.910156 243.046875 24.707031 248.808594 22.644531 C 254.574219 20.582031 260.382812 18.664062 266.242188 16.886719 C 272.101562 15.109375 278 13.476562 283.9375 11.988281 C 289.875 10.503906 295.84375 9.160156 301.847656 7.96875 C 307.851562 6.773438 313.882812 5.726562 319.9375 4.828125 C 325.992188 3.929688 332.066406 3.179688 338.15625 2.582031 C 344.25 1.980469 350.351562 1.53125 356.46875 1.230469 C 362.582031 0.929688 368.699219 0.78125 374.820312 0.78125 Z M 374.820312 0.78125 " clip-rule="nonzero"/></clipPath><clipPath id="042a4af634"><path d="M 211.730469 211.492188 L 555.539062 211.492188 L 555.539062 864.148438 L 211.730469 864.148438 Z M 211.730469 211.492188 " clip-rule="nonzero"/></clipPath><clipPath id="ef95720ef5"><path d="M 519 824 L 1179 824 L 1179 1181 L 519 1181 Z M 519 824 " clip-rule="nonzero"/></clipPath><clipPath id="75c5ae5a3b"><path d="M 526.113281 824.992188 L 1178.660156 836.972656 L 1172.347656 1180.726562 L 519.800781 1168.742188 Z M 526.113281 824.992188 " clip-rule="nonzero"/></clipPath><clipPath id="27113da5d3"><path d="M 7 2 L 659.878906 2 L 659.878906 356.800781 L 7 356.800781 Z M 7 2 " clip-rule="nonzero"/></clipPath><clipPath id="fb598697b8"><path d="M 7.113281 0.992188 L 659.660156 12.972656 L 653.347656 356.726562 L 0.800781 344.742188 Z M 7.113281 0.992188 " clip-rule="nonzero"/></clipPath><clipPath id="d914144a3a"><path d="M 0.777344 346.019531 L 653.324219 358 L 659.636719 14.246094 L 7.089844 2.265625 Z M 0.777344 346.019531 " clip-rule="nonzero"/></clipPath><clipPath id="2b3c0ae2e5"><rect x="0" width="660" y="0" height="357"/></clipPath><clipPath id="5ca25915e2"><path d="M 211.738281 824.992188 L 556.859375 824.992188 L 556.859375 1171.605469 L 211.738281 1171.605469 Z M 211.738281 824.992188 " clip-rule="nonzero"/></clipPath><clipPath id="eb0a0a40f5"><path d="M 0.738281 0.992188 L 345.859375 0.992188 L 345.859375 347.605469 L 0.738281 347.605469 Z M 0.738281 0.992188 " clip-rule="nonzero"/></clipPath><clipPath id="707593fed3"><rect x="0" width="346" y="0" height="348"/></clipPath><clipPath id="924388e837"><path d="M 384 209 L 1181 209 L 1181 1006 L 384 1006 Z M 384 209 " clip-rule="nonzero"/></clipPath><clipPath id="6cb6767ec8"><path d="M 384.324219 760.789062 L 935.191406 209.917969 L 1180.285156 455.011719 L 629.414062 1005.882812 Z M 384.324219 760.789062 " clip-rule="nonzero"/></clipPath><clipPath id="ca196cf445"><path d="M 0.238281 1 L 796 1 L 796 797 L 0.238281 797 Z M 0.238281 1 " clip-rule="nonzero"/></clipPath><clipPath id="8f7ef0d84a"><path d="M 0.324219 551.789062 L 551.191406 0.917969 L 796.285156 246.011719 L 245.414062 796.882812 Z M 0.324219 551.789062 " clip-rule="nonzero"/></clipPath><clipPath id="18dda788a5"><rect x="0" width="797" y="0" height="797"/></clipPath><mask id="18672a3e48"><g filter="url(#c2dec21866)"><rect x="-384" width="2160" fill="#000000" y="-383.999985" height="2159.999904" fill-opacity="0.27"/></g></mask><clipPath id="2fbd9587fb"><path d="M 0.679688 3.492188 L 344.46875 3.492188 L 344.46875 656.148438 L 0.679688 656.148438 Z M 0.679688 3.492188 " clip-rule="nonzero"/></clipPath><clipPath id="9f7fd769cc"><rect x="0" width="347" y="0" height="657"/></clipPath><mask id="31f04b75b8"><g filter="url(#c2dec21866)"><rect x="-384" width="2160" fill="#000000" y="-383.999985" height="2159.999904" fill-opacity="0.27"/></g></mask><clipPath id="5b2c484d9b"><path d="M 0.601562 0.640625 L 660 0.640625 L 660 357 L 0.601562 357 Z M 0.601562 0.640625 " clip-rule="nonzero"/></clipPath><clipPath id="c1b5409afc"><path d="M 7.042969 0.992188 L 659.589844 12.972656 L 653.277344 356.726562 L 0.730469 344.742188 Z M 7.042969 0.992188 " clip-rule="nonzero"/></clipPath><clipPath id="c8ef081fea"><path d="M 6 2 L 659.640625 2 L 659.640625 356.800781 L 6 356.800781 Z M 6 2 " clip-rule="nonzero"/></clipPath><clipPath id="3ac46bed52"><path d="M 7.042969 0.992188 L 659.589844 12.972656 L 653.277344 356.726562 L 0.730469 344.742188 Z M 7.042969 0.992188 " clip-rule="nonzero"/></clipPath><clipPath id="0f468c576d"><path d="M 0.707031 346.019531 L 653.253906 358 L 659.566406 14.246094 L 7.019531 2.265625 Z M 0.707031 346.019531 " clip-rule="nonzero"/></clipPath><clipPath id="59499a7593"><rect x="0" width="660" y="0" height="357"/></clipPath><clipPath id="ed24ba7132"><rect x="0" width="663" y="0" height="358"/></clipPath><mask id="05bf87c7f0"><g filter="url(#c2dec21866)"><rect x="-384" width="2160" fill="#000000" y="-383.999985" height="2159.999904" fill-opacity="0.27"/></g></mask><clipPath id="c05ad2c71a"><path d="M 0.667969 0.992188 L 345.789062 0.992188 L 345.789062 347.605469 L 0.667969 347.605469 Z M 0.667969 0.992188 " clip-rule="nonzero"/></clipPath><clipPath id="06f8e5e9f8"><path d="M 0.667969 0.992188 L 345.789062 0.992188 L 345.789062 347.605469 L 0.667969 347.605469 Z M 0.667969 0.992188 " clip-rule="nonzero"/></clipPath><clipPath id="ff437a5c40"><rect x="0" width="346" y="0" height="348"/></clipPath><clipPath id="5de4bbbe0a"><rect x="0" width="346" y="0" height="349"/></clipPath><mask id="a29cfe83b3"><g filter="url(#c2dec21866)"><rect x="-384" width="2160" fill="#000000" y="-383.999985" height="2159.999904" fill-opacity="0.27"/></g></mask><clipPath id="c69357c7a5"><path d="M 0.238281 0.28125 L 797 0.28125 L 797 797 L 0.238281 797 Z M 0.238281 0.28125 " clip-rule="nonzero"/></clipPath><clipPath id="95de89c3a7"><path d="M 0.253906 551.789062 L 551.125 0.917969 L 796.214844 246.011719 L 245.347656 796.882812 Z M 0.253906 551.789062 " clip-rule="nonzero"/></clipPath><clipPath id="9b86f16baa"><path d="M 0.238281 1 L 796 1 L 796 797 L 0.238281 797 Z M 0.238281 1 " clip-rule="nonzero"/></clipPath><clipPath id="d2f4eb31e5"><path d="M 0.253906 551.789062 L 551.125 0.917969 L 796.214844 246.011719 L 245.347656 796.882812 Z M 0.253906 551.789062 " clip-rule="nonzero"/></clipPath><clipPath id="a0b7d946b2"><rect x="0" width="797" y="0" height="797"/></clipPath><clipPath id="1092073673"><rect x="0" width="798" y="0" height="798"/></clipPath><clipPath id="931092c490"><rect x="0" width="1392" y="0" height="1392"/></clipPath></defs><g transform="matrix(1, 0, 0, 1, 54, 54)"><g clip-path="url(#931092c490)"><g clip-path="url(#c057c5c76c)"><g clip-path="url(#e72d6d5d33)"><path fill="#3e4194" d="M 0.78125 1391.132812 L 1391.132812 1391.132812 L 1391.132812 0.78125 L 0.78125 0.78125 Z M 0.78125 1391.132812 " fill-opacity="1" fill-rule="nonzero"/></g></g><g clip-path="url(#042a4af634)"><path fill="#ffffff" d="M 556.726562 209.914062 L 556.726562 864.148438 C 366.253906 864.148438 211.847656 709.742188 211.847656 519.269531 L 211.847656 209.914062 Z M 556.726562 209.914062 " fill-opacity="1" fill-rule="nonzero"/></g><g clip-path="url(#ef95720ef5)"><g clip-path="url(#75c5ae5a3b)"><g transform="matrix(1, 0, 0, 1, 519, 824)"><g clip-path="url(#2b3c0ae2e5)"><g clip-path="url(#27113da5d3)"><g clip-path="url(#fb598697b8)"><g clip-path="url(#d914144a3a)"><path fill="#ffffff" d="M 661.234375 13.089844 L 7.109375 1.078125 C 3.613281 191.519531 155.160156 348.734375 345.597656 352.230469 L 654.902344 357.910156 Z M 661.234375 13.089844 " fill-opacity="1" fill-rule="nonzero"/></g></g></g></g></g></g></g><g clip-path="url(#5ca25915e2)"><g transform="matrix(1, 0, 0, 1, 211, 824)"><g clip-path="url(#707593fed3)"><g clip-path="url(#eb0a0a40f5)"><path fill="#ffffff" d="M 0.738281 0.992188 L 345.859375 0.992188 L 345.859375 347.460938 L 0.738281 347.460938 Z M 0.738281 0.992188 " fill-opacity="1" fill-rule="nonzero"/></g></g></g></g><g clip-path="url(#924388e837)"><g clip-path="url(#6cb6767ec8)"><g transform="matrix(1, 0, 0, 1, 384, 209)"><g clip-path="url(#18dda788a5)"><g clip-path="url(#ca196cf445)"><g clip-path="url(#8f7ef0d84a)"><path fill="#ffffff" d="M 0.324219 551.789062 L 550.824219 1.289062 L 795.914062 246.382812 L 245.414062 796.882812 Z M 0.324219 551.789062 " fill-opacity="1" fill-rule="nonzero"/></g></g></g></g></g></g><g mask="url(#18672a3e48)"><g transform="matrix(1, 0, 0, 1, 289, 208)"><g clip-path="url(#9f7fd769cc)"><g clip-path="url(#2fbd9587fb)"><path fill="#ffffff" d="M 345.65625 1.914062 L 345.65625 656.148438 C 155.183594 656.148438 0.777344 501.742188 0.777344 311.269531 L 0.777344 1.914062 Z M 345.65625 1.914062 " fill-opacity="1" fill-rule="nonzero"/></g></g></g></g><g mask="url(#31f04b75b8)"><g transform="matrix(1, 0, 0, 1, 597, 824)"><g clip-path="url(#ed24ba7132)"><g clip-path="url(#5b2c484d9b)"><g clip-path="url(#c1b5409afc)"><g transform="matrix(1, 0, 0, 1, 0.000000000000113687, 0.000000000000113687)"><g clip-path="url(#59499a7593)"><g clip-path="url(#c8ef081fea)"><g clip-path="url(#3ac46bed52)"><g clip-path="url(#0f468c576d)"><path fill="#ffffff" d="M 661.164062 13.089844 L 7.042969 1.078125 C 3.546875 191.519531 155.089844 348.734375 345.53125 352.230469 L 654.832031 357.910156 Z M 661.164062 13.089844 " fill-opacity="1" fill-rule="nonzero"/></g></g></g></g></g></g></g></g></g></g><g mask="url(#05bf87c7f0)"><g transform="matrix(1, 0, 0, 1, 289, 824)"><g clip-path="url(#5de4bbbe0a)"><g clip-path="url(#c05ad2c71a)"><g transform="matrix(1, 0, 0, 1, -0.000000000000056843, 0.000000000000113687)"><g clip-path="url(#ff437a5c40)"><g clip-path="url(#06f8e5e9f8)"><path fill="#ffffff" d="M 0.667969 0.992188 L 345.789062 0.992188 L 345.789062 347.460938 L 0.667969 347.460938 Z M 0.667969 0.992188 " fill-opacity="1" fill-rule="nonzero"/></g></g></g></g></g></g></g><g mask="url(#a29cfe83b3)"><g transform="matrix(1, 0, 0, 1, 462, 209)"><g clip-path="url(#1092073673)"><g clip-path="url(#c69357c7a5)"><g clip-path="url(#95de89c3a7)"><g transform="matrix(1, 0, 0, 1, 0, 0.00000000000017053)"><g clip-path="url(#a0b7d946b2)"><g clip-path="url(#9b86f16baa)"><g clip-path="url(#d2f4eb31e5)"><path fill="#ffffff" d="M 0.253906 551.789062 L 550.753906 1.289062 L 795.847656 246.382812 L 245.347656 796.882812 Z M 0.253906 551.789062 " fill-opacity="1" fill-rule="nonzero"/></g></g></g></g></g></g></g></g></g></g></g></svg>